<?xml version="1.0" encoding="utf-8"?>
<!-- Generator: Adobe Illustrator 26.5.0, SVG Export Plug-In . SVG Version: 6.00 Build 0)  -->
<svg version="1.1" id="Layer_1" xmlns="http://www.w3.org/2000/svg" xmlns:xlink="http://www.w3.org/1999/xlink" x="0px" y="0px"
	 viewBox="0 0 86.5 36.5" style="enable-background:new 0 0 86.5 36.5;" xml:space="preserve">
<style type="text/css">
	.st0{fill:#FFFFFF;}
</style>
<g>
	<path class="st0" d="M8.1,6.6v2.5l7.2,3V9.5L8.1,6.6z"/>
	<path class="st0" d="M7.3,5.4l8,3.3V0L0.4,6l6.9,2.8L7.3,5.4z"/>
	<path class="st0" d="M7.3,9.7L0,6.7v14.8l7.3-3V9.7z"/>
	<path class="st0" d="M15.3,12.9L8.1,10v8.2l2.5-1v-3.4l4.1,1.7l0.4-0.1l0.2-0.1V12.9z"/>
	<path class="st0" d="M11.4,16.9l2.3-0.9l-2.3-1V16.9z"/>
	<path class="st0" d="M11.4,16.9l2.3-0.9l-2.3-1V16.9z"/>
	<path class="st0" d="M11.4,23.2l3.9,1.6v-8.2l-0.6-0.2l-3.3,1.4L11.4,23.2z"/>
	<path class="st0" d="M16.1,15.8v0.3l7.3,2.9v-6.2l-7.3-2.9L16.1,15.8z"/>
	<path class="st0" d="M15.3,12.1V9.5L8.1,6.6v2.5L15.3,12.1z"/>
	<path class="st0" d="M23.4,19.9L16.1,17v8.1l7.3,3L23.4,19.9z"/>
	<path class="st0" d="M15.3,12.9L8.1,10v8.2l2.5-1v-3.4l4.1,1.7l0.6-0.2L15.3,12.9z"/>
	<path class="st0" d="M8.1,19.1v2.8l2.5,1v-4.8L8.1,19.1z"/>
	<path class="st0" d="M10.6,18.1l-2.5,1v2.8l2.5,1V18.1z"/>
	<path class="st0" d="M7.3,22.4v-3l-6.9,2.8L4.9,24l5.7,2.3v-2.6L7.3,22.4z"/>
	<path class="st0" d="M10.6,13.8l4.1,1.7l0.6-0.2v-2.4L8.1,10v8.2l2.5-1L10.6,13.8z"/>
	<path class="st0" d="M15.3,16.6l-0.6-0.2l-3.3,1.4v5.4l3.9,1.6L15.3,16.6z"/>
	<path class="st0" d="M15.3,25.7l-3.9-1.6v2.5l3.9,1.6L15.3,25.7z"/>
	<path class="st0" d="M7.3,18.5V9.7L0,6.7v14.8L7.3,18.5z"/>
	<path class="st0" d="M13.7,16l-2.3-1v1.9L13.7,16z"/>
	<path class="st0" d="M15.3,25.7l-3.9-1.6v2.5l3.9,1.6L15.3,25.7z"/>
	<path class="st0" d="M13.7,16l-2.3-1v1.9L13.7,16z"/>
	<path class="st0" d="M23.4,28.1v-8.2L16.1,17v8.1L23.4,28.1z"/>
	<path class="st0" d="M15.3,16.6l-0.6-0.2l-3.3,1.4v5.4l3.9,1.6L15.3,16.6z"/>
	<path class="st0" d="M24.2,29.3L16.1,26v3.4l-4.7-1.9v2.8l15.3,6.2V21.2l-2.5-1V29.3z"/>
	<path class="st0" d="M53.3,14.4l-1.9-0.8v-1.9l1.9,0.7V14.4z"/>
	<path class="st0" d="M41.8,22.1v2.4h-1.9v-2.4h-5.3V21l5.3-7.7h2v7.8h1.8l-0.6,1H41.8z M39.9,15.1c0,0-0.3,0.6-0.9,1.5l-3,4.5h3.9
		v-4.3C39.9,15.9,40,15.1,39.9,15.1z"/>
	<path class="st0" d="M43.3,24.6l4.2-7.7h-4l0.6-1.1h6.1l-4,7.6h4.2l-0.6,1.2L43.3,24.6z"/>
	<path class="st0" d="M51.3,15.7h2.1v8.8h-2.1V15.7z"/>
	<path class="st0" d="M59.3,24.8c-3.1,0-4.8-1.7-4.8-4.5c0-2.9,1.9-4.7,4.6-4.7c0.7,0,1.3,0.1,1.7,0.2v-4l2,0.8v11.6
		C62,24.5,60.8,24.8,59.3,24.8z M60.7,16.8c-0.4-0.1-0.8-0.1-1.2-0.1c-2.1,0-2.9,1.6-2.9,3.5c0,2.1,0.8,3.4,2.8,3.4
		c0.6,0,1.1-0.1,1.4-0.3L60.7,16.8L60.7,16.8z"/>
	<path class="st0" d="M67.9,24.8c-2.8,0-4.1-1-4.1-2.7c0-2.4,2.7-3,5.9-3.3v-0.5c0-1.2-0.9-1.6-2.2-1.6c-0.9,0-2,0.2-2.6,0.5
		l-0.5-1.1c0.7-0.3,1.9-0.6,3.5-0.6c2.1,0,3.8,0.8,3.8,3.1v5.6C70.8,24.5,69.5,24.8,67.9,24.8z M69.7,19.7c-2.4,0.2-4,0.6-4,2.3
		c0,1.2,0.9,1.7,2.4,1.7c0.7,0,1.2-0.1,1.6-0.3V19.7z"/>
	<path class="st0" d="M73.8,24.6c-0.4,0-0.7-0.3-0.7-0.7s0.3-0.7,0.7-0.7s0.7,0.3,0.7,0.7S74.2,24.6,73.8,24.6z"/>
	<path class="st0" d="M80.1,16.3c-0.9-0.2-2.4-0.1-3,0.2v8h-0.9v-8.4c1-0.4,1.9-0.6,3.7-0.6h0.5L80.1,16.3z"/>
	<path class="st0" d="M83.1,24.8c-1.1,0-2.1-0.3-2.6-0.6l0.3-0.6c0.4,0.3,1.2,0.5,2.2,0.5c1.4,0,2.5-0.9,2.5-1.9
		c0-2.6-4.7-1.3-4.7-4.4c0-1.1,1.1-2.3,3.1-2.3c1,0,1.8,0.3,2.3,0.6l-0.3,0.6c-0.3-0.2-1-0.5-1.9-0.5c-1.4,0-2.3,0.8-2.3,1.7
		c0,2.4,4.8,1.2,4.8,4.4C86.5,23.4,85.1,24.8,83.1,24.8z"/>
</g>
</svg>
