<?xml version="1.0" encoding="utf-8"?>
<!-- Generator: Adobe Illustrator 26.5.0, SVG Export Plug-In . SVG Version: 6.00 Build 0)  -->
<svg version="1.1" id="Layer_1" xmlns="http://www.w3.org/2000/svg" xmlns:xlink="http://www.w3.org/1999/xlink" x="0px" y="0px"
	 viewBox="0 0 210.5 55.9" style="enable-background:new 0 0 210.5 55.9;" xml:space="preserve">
<style type="text/css">
	.st0{fill:#FFFFFF;}
	.st1{fill:#FFFFFF;}
</style>
<g id="XMLID_79_">
	<g id="XMLID_9_">
		<path id="XMLID_1884_" class="st0" d="M33.1,23c-1.4-1.4-3.3-2.2-5.3-2.2c-2,0-3.9,0.8-5.3,2.2c-2.9,2.9-2.9,7.6,0,10.5
			c1.4,1.4,3.3,2.2,5.3,2.2c2,0,3.9-0.8,5.3-2.2C36,30.6,36,25.9,33.1,23z"/>
		<path id="XMLID_1882_" class="st1" d="M20.9,35.2c-3.8-3.8-3.8-10,0-13.9c1.9-1.8,4-2.8,6.9-2.9v-18c-1.3,0-2.6,0.1-3.9,0.3
			c-0.5,0.1-0.9,0.5-1,1l-0.9,6.5C20.5,8.6,19,9.2,17.5,10l-5.2-4c-0.4-0.3-1-0.3-1.4,0c-0.9,0.7-1.8,1.5-2.7,2.3L7.9,8.8
			c-0.8,0.9-1.6,1.8-2.3,2.7c-0.3,0.4-0.3,1,0,1.4l4,5.2c-0.8,1.4-1.4,3-1.9,4.5l-6.5,0.8c-0.5,0.1-0.9,0.5-1,1
			C0.1,25.6,0,26.7,0,27.9v0.8c0,1.2,0.1,2.3,0.2,3.4c0.1,0.5,0.4,0.9,1,1L7.6,34c0.4,1.6,1.1,3.1,1.9,4.5l-4,5.2
			c-0.3,0.4-0.3,1,0,1.4C6.3,46,7,46.9,7.9,47.8l0.4,0.4C9.2,49,10,49.8,11,50.5c0.4,0.3,1,0.3,1.4,0l5.2-4c1.4,0.8,3,1.4,4.5,1.9
			l0.8,6.5c0.1,0.5,0.5,0.8,1,0.9c1.3,0.2,2.6,0.2,3.8,0.2h0.1V38.1C25,38.1,22.8,37,20.9,35.2z"/>
		<path id="XMLID_1883_" class="st0" d="M27.8,0.5v5.2c10.6,0,19.6,7.3,22,17.5c0,0.1,0.4,1.2,0.2,1.4c-0.3,0.3-1.2,0.2-1.3,0.2
			H36.9c0.7,1.6,0.8,3.4,0.5,5.1c3.1-1.6,7-2,11.8-1c0.2,0,0.3,0.1,0.4,0.2c0.4,0.2,0.7,0.6,0.6,1.1c-0.9,10.1-8.4,18.4-18.4,20.3
			l0,0l0,0c0,0,0,0,0,0c-0.1,0-0.1,0-0.2,0c-0.4,0-0.8-0.2-1-0.5c0,0,0-0.1-0.1-0.1c0-0.1-0.1-0.2-0.1-0.2l0,0l0,0
			c-0.1-0.4-1.1-6.6,0.8-12.2c-1.1,0.4-2.3,0.6-3.5,0.6c0,0,0,0,0,0v17.9h0c15.3,0,27.8-12.3,27.8-27.6C55.7,12.9,43.2,0.5,27.8,0.5
			z"/>
	</g>
	<g id="XMLID_11_">
		<g id="XMLID_68_">
			<path id="XMLID_69_" class="st1" d="M62.9,23.2l4.3-16.1c1.1-4.4,4.9-6.6,11.2-6.6h9.1c0.4,0,0.8,0.2,1.1,0.5s0.4,0.7,0.4,1.1
				v21.1c0,0.4-0.2,0.8-0.5,1.1c-0.3,0.3-0.7,0.4-1.1,0.4h-3.2c-0.4,0-0.8-0.2-1.2-0.4c-0.3-0.3-0.4-0.7-0.4-1.2v-4.3h-12l-1.1,4.3
				c-0.1,0.4-0.4,0.8-0.8,1.2c-0.4,0.3-0.8,0.4-1.2,0.4h-3.3c-0.4,0-0.8-0.1-1-0.4c-0.2-0.3-0.3-0.5-0.3-0.7
				C62.8,23.6,62.9,23.4,62.9,23.2z M71.8,14.1h10.8V5.3h-4.8c-1.1,0-2,0.3-2.8,0.9c-0.8,0.6-1.3,1.4-1.6,2.5L71.8,14.1z"/>
			<path id="XMLID_72_" class="st1" d="M93.5,15.2V2.1c0-0.4,0.2-0.8,0.5-1.1c0.3-0.3,0.7-0.5,1.2-0.5h3.2c0.4,0,0.8,0.2,1.1,0.5
				s0.5,0.7,0.5,1.1v13.1c0,1.7,0.4,2.9,1.1,3.7c0.7,0.8,1.9,1.2,3.4,1.2h2.7c1.5,0,2.7-0.4,3.4-1.2c0.7-0.8,1.1-2,1.1-3.7V2.1
				c0-0.4,0.2-0.8,0.5-1.1c0.3-0.3,0.7-0.5,1.1-0.5h3.1c0.4,0,0.9,0.2,1.2,0.5c0.3,0.3,0.5,0.7,0.5,1.1v13.1c0,3.1-0.9,5.5-2.7,7.2
				c-1.8,1.7-4.5,2.6-7.9,2.6h-3c-3.5,0-6.1-0.9-8-2.6C94.4,20.7,93.5,18.3,93.5,15.2z"/>
			<path id="XMLID_74_" class="st1" d="M120.2,3.7V2.1c0-0.4,0.2-0.8,0.4-1.2c0.3-0.3,0.7-0.4,1.2-0.4h21.5c0.4,0,0.8,0.2,1.2,0.4
				c0.3,0.3,0.4,0.7,0.4,1.2v1.6c0,0.4-0.2,0.8-0.4,1.2c-0.3,0.3-0.7,0.4-1.2,0.4h-7.6v17.9c0,0.4-0.2,0.8-0.5,1.1
				c-0.3,0.3-0.7,0.4-1.1,0.4H131c-0.4,0-0.8-0.2-1.1-0.4c-0.3-0.3-0.5-0.7-0.5-1.1V5.3h-7.6c-0.4,0-0.8-0.2-1.2-0.4
				C120.4,4.6,120.2,4.2,120.2,3.7z"/>
			<path id="XMLID_76_" class="st1" d="M169.6,22.3c-2.3,2-5.7,3-10.1,3c-4.4,0-7.8-1-10.1-3s-3.5-5.2-3.5-9.6
				c0-4.4,1.2-7.6,3.5-9.6c2.3-2,5.7-3,10.1-3c4.4,0,7.8,1,10.1,3s3.5,5.2,3.5,9.6C173.1,17.1,171.9,20.3,169.6,22.3z M165,6.6
				c-1.2-1.3-3-2-5.5-2c-2.5,0-4.4,0.7-5.5,2s-1.7,3.4-1.7,6s0.6,4.7,1.7,6c1.2,1.3,3,2,5.5,2c2.5,0,4.4-0.7,5.5-2
				c1.2-1.3,1.7-3.4,1.7-6C166.7,10,166.1,8,165,6.6z"/>
		</g>
		<g id="XMLID_52_">
			<path id="XMLID_53_" class="st1" d="M63.1,54.2V33.1c0-0.4,0.2-0.8,0.5-1.1c0.3-0.3,0.7-0.5,1.2-0.5h3.1c0.4,0,0.8,0.2,1.1,0.5
				c0.3,0.3,0.5,0.7,0.5,1.1v7.6h11.6v-7.6c0-0.4,0.2-0.8,0.5-1.1c0.3-0.3,0.7-0.5,1.1-0.5h3.1c0.4,0,0.9,0.2,1.2,0.5
				c0.3,0.3,0.5,0.7,0.5,1.1v21.1c0,0.4-0.2,0.8-0.5,1.1c-0.3,0.3-0.7,0.5-1.2,0.5h-3.1c-0.4,0-0.8-0.2-1.1-0.4
				c-0.3-0.3-0.5-0.7-0.5-1.1v-8.7H69.5v8.7c0,0.4-0.2,0.8-0.5,1.1c-0.3,0.3-0.7,0.4-1.1,0.4h-3.1c-0.4,0-0.8-0.2-1.2-0.5
				C63.2,55,63.1,54.6,63.1,54.2z"/>
			<path id="XMLID_55_" class="st1" d="M92,46.2V33.1c0-0.4,0.2-0.8,0.5-1.1c0.3-0.3,0.7-0.5,1.2-0.5h3.2c0.4,0,0.8,0.2,1.1,0.5
				c0.3,0.3,0.5,0.7,0.5,1.1v13.1c0,1.7,0.4,2.9,1.1,3.7c0.7,0.8,1.9,1.2,3.4,1.2h2.7c1.5,0,2.7-0.4,3.4-1.2c0.7-0.8,1.1-2,1.1-3.7
				V33.1c0-0.4,0.2-0.8,0.5-1.1c0.3-0.3,0.7-0.5,1.1-0.5h3.1c0.4,0,0.9,0.2,1.2,0.5c0.3,0.3,0.5,0.7,0.5,1.1v13.1
				c0,3.1-0.9,5.5-2.7,7.2c-1.8,1.7-4.5,2.6-7.9,2.6h-3c-3.5,0-6.1-0.9-8-2.6C92.9,51.6,92,49.2,92,46.2z"/>
			<path id="XMLID_57_" class="st1" d="M120.9,33.1c0-0.4,0.2-0.8,0.5-1.1c0.3-0.3,0.7-0.5,1.1-0.5h13.8c3.4,0,5.9,1,7.5,2.9
				c0.9,1.1,1.3,2.4,1.3,4.1c0,1.7-0.8,3.1-2.3,4.4c2.2,1.2,3.3,3,3.3,5.4c0,2.4-0.9,4.3-2.6,5.6c-1.7,1.3-3.8,1.9-6.4,1.9h-14.6
				c-0.4,0-0.8-0.2-1.1-0.5c-0.3-0.3-0.5-0.7-0.5-1.1L120.9,33.1L120.9,33.1z M127.3,40.9h9.1c0.7,0,1.3-0.2,1.7-0.6
				c0.4-0.4,0.6-1,0.6-1.8s-0.2-1.3-0.6-1.8c-0.4-0.4-1-0.6-1.7-0.6h-9.1V40.9z M127.3,51.2h9.7c0.9,0,1.5-0.3,2-0.8
				c0.4-0.5,0.7-1.2,0.7-2.1c0-0.9-0.2-1.6-0.7-2.1c-0.4-0.5-1.1-0.8-2-0.8h-9.7V51.2z"/>
			<path id="XMLID_61_" class="st0" d="M152.8,50.2c1.5,0,2.3,0.8,2.3,2.3v1.1c0,0.7-0.2,1.3-0.6,1.7c-0.4,0.4-1,0.6-1.7,0.6h-2.1
				c-0.7,0-1.3-0.2-1.7-0.6c-0.4-0.4-0.6-1-0.6-1.7v-1.1c0-0.7,0.2-1.3,0.6-1.7c0.4-0.4,1-0.6,1.7-0.6H152.8z"/>
			<path id="XMLID_63_" class="st0" d="M184.1,55c0,0.5-0.3,0.7-0.9,0.7h-4.1c-0.4,0-0.9-0.2-1.4-0.5c-0.5-0.3-0.9-0.7-1.2-1.1
				l-2.9-4.5c-1.2-1.9-2.6-2.8-4.3-2.8h-4.1v7.3c0,0.4-0.2,0.8-0.5,1.1c-0.3,0.3-0.7,0.5-1.1,0.5h-3.2c-0.4,0-0.8-0.2-1.1-0.5
				c-0.3-0.3-0.5-0.7-0.5-1.1V33.1c0-0.4,0.2-0.8,0.4-1.1c0.3-0.3,0.7-0.5,1.1-0.5h14c2.6,0,4.7,0.7,6.4,2.1s2.5,3.3,2.5,5.6
				c0,3.3-2.1,5.3-6.4,6.2c0.7,0.3,1.3,0.7,1.9,1.3c0.6,0.6,1.2,1.5,2,2.6l3.1,4.9C184,54.4,184.1,54.7,184.1,55z M165.3,42.1h7.2
				c1.2,0,2.2-0.2,3.1-0.7c0.9-0.4,1.3-1.2,1.3-2.2c0-1-0.4-1.8-1.3-2.2c-0.9-0.4-1.9-0.7-3.1-0.7h-7.2V42.1z"/>
			<path id="XMLID_66_" class="st0" d="M185.5,49.5c0-0.7,0.2-1.2,0.6-1.4c0.4-0.3,0.8-0.4,1.2-0.4h2c1,0,1.8,0.5,2.3,1.7
				c0.5,1.1,1.7,1.7,3.6,1.7l5.9,0.1c2,0,3-0.6,3-2c0-1-1.2-1.8-3.6-2.3c-1.1-0.3-2.3-0.5-3.6-0.8c-1.3-0.3-2.6-0.6-3.9-1
				c-1.3-0.4-2.5-0.8-3.6-1.3c-1.1-0.5-2-1.2-2.6-2.1c-0.7-0.9-1-2-1-3.2c0-2.3,0.8-4,2.4-5.2c1.6-1.2,4.4-1.8,8.3-1.8l4.3,0.1
				c2.3,0,4.4,0.6,6.2,1.8s2.8,2.7,2.8,4.4c0,0.7-0.2,1.2-0.6,1.4c-0.4,0.3-0.8,0.4-1.1,0.4h-2c-1,0-1.8-0.5-2.3-1.7
				c-0.5-1.1-1.7-1.7-3.6-1.7l-5.1-0.1c-2,0-3,0.6-3,2c0,0.7,0.6,1.3,1.9,1.7c1.2,0.4,2.8,0.9,4.6,1.2c1.8,0.4,3.6,0.8,5.4,1.2
				c1.8,0.5,3.3,1.3,4.6,2.4c1.2,1.1,1.9,2.5,1.9,4.2c0,2.3-0.8,4-2.4,5.2c-1.6,1.2-4.4,1.8-8.3,1.8l-5.1-0.1
				c-2.3,0-4.4-0.6-6.3-1.8C186.5,52.8,185.5,51.3,185.5,49.5z"/>
		</g>
	</g>
</g>
</svg>
