<?xml version="1.0" encoding="utf-8"?>
<!-- Generator: Adobe Illustrator 26.5.0, SVG Export Plug-In . SVG Version: 6.00 Build 0)  -->
<svg version="1.1" id="Layer_1" xmlns="http://www.w3.org/2000/svg" xmlns:xlink="http://www.w3.org/1999/xlink" x="0px" y="0px"
	 viewBox="0 0 240.8 25.7" style="enable-background:new 0 0 240.8 25.7;" xml:space="preserve">
<style type="text/css">
	.st0{fill:#FFFFFF;}
	.st1{fill:#FFFFFF;}
</style>
<g>
	<polygon class="st0" points="0,12.8 7.9,0.1 16.5,0.1 8.5,12.8 16.4,25.5 7.9,25.5 	"/>
	<polygon class="st0" points="240.8,12.9 232.9,25.5 224.3,25.5 232.3,12.9 224.4,0.1 232.9,0.1 	"/>
	<polygon class="st1" points="39.1,25.3 39.1,15.7 30.1,15.7 30.1,25.3 22.9,25.3 22.9,0.1 30.1,0.1 30.1,9.7 39.1,9.7 39.1,0.1 
		46.2,0.1 46.2,25.3 	"/>
	<path class="st1" d="M68.4,18.2l-12.4,0c0.5,1.6,2.5,2.3,4,2.3c1.9,0,3.4-0.6,4.6-1.4l3.2,3.6c-2.1,2-5,3-8.1,3
		c-5.6,0-10.4-2.8-10.4-9.3c0-6.5,5.1-9.4,9.9-9.4C65.5,7,69.9,11.2,68.4,18.2 M62.4,14c-0.2-2.8-6-2.9-6.4,0L62.4,14z"/>
	<polygon class="st1" points="84.1,0 77.1,25.2 69.5,25.2 76.5,0 	"/>
	<polygon class="st1" points="95.6,0 88.6,25.2 81,25.2 88,0 	"/>
	<path class="st1" d="M115,16.4c0,6.5-5.2,9.3-10.2,9.3c-5.1,0-10.2-2.8-10.2-9.3c0-6.6,5-9.3,10.2-9.3C110.1,7.1,115,9.9,115,16.4
		 M108.1,16.4c0-2.1-1.3-3.9-3.7-3.9c-2.3,0-3.7,1.8-3.7,3.9c0,2.1,1.3,3.9,3.7,3.9C106.7,20.2,108.1,18.5,108.1,16.4"/>
	<path class="st1" d="M143.3,25.2h-5.8L133,13.1l-4.3,12.1h-5.8L113.5,0h7.8l3.2,8.9c0.6,1.9,1,4,1.3,5.8L130.5,0h4.9l4.8,14.7
		c0.4-1.9,0.8-3.9,1.4-6l3-8.7h7.8L143.3,25.2z"/>
	<path class="st1" d="M170.2,16.4c0,6.5-5.2,9.3-10.2,9.3c-5.1,0-10.2-2.8-10.2-9.3c0-6.6,5-9.3,10.2-9.3
		C165.3,7.1,170.2,9.9,170.2,16.4 M163.7,16.4c0-2.1-1.3-3.9-3.7-3.9c-2.3,0-3.7,1.8-3.7,3.9c0,2.1,1.3,3.9,3.7,3.9
		C162.3,20.2,163.7,18.5,163.7,16.4"/>
	<rect x="188.7" y="0" class="st1" width="6.6" height="25.2"/>
	<path class="st1" d="M211.3,0h6.6v25.2H212l-0.3-1.9c-1.5,1.7-3.9,2.3-5.9,2.2c-5.2-0.3-8.1-3.6-8.1-9.2c0-5.4,3.5-9.3,8.6-9.3
		c2.3,0,4,0.7,4.9,1.9V0z M204.3,16.3c0,2.5,1.6,3.9,3.6,3.9c2.2,0,3.6-1.8,3.6-3.7c0-2.2-1.2-4.1-3.6-4.1
		C205.9,12.4,204.3,13.9,204.3,16.3"/>
	<path class="st1" d="M188.4,8.9"/>
	<path class="st1" d="M183.8,7c-1.7,0-3.4,0.7-4.3,2.4L179,7.5h-5.9v17.8h6.6V16c0-2.3,1.4-3.4,3.1-3.4c1.1,0,1.9,0.2,3,1.1V7.3
		C185.1,7.1,184.5,7,183.8,7"/>
</g>
</svg>
