<?xml version="1.0" encoding="utf-8"?>
<!-- Generator: Adobe Illustrator 26.5.0, SVG Export Plug-In . SVG Version: 6.00 Build 0)  -->
<svg version="1.1" id="Layer_1" xmlns="http://www.w3.org/2000/svg" xmlns:xlink="http://www.w3.org/1999/xlink" x="0px" y="0px"
	 viewBox="0 0 120.1 56.4" style="enable-background:new 0 0 120.1 56.4;" xml:space="preserve">
<style type="text/css">
	.st0{fill:#FFFFFF;}
</style>
<g>
	<rect x="50.4" y="0" class="st0" width="5.5" height="36.4"/>
	<path class="st0" d="M83.1,10.2h4.5v26.3h-4.4l-1.1-4.3c-1.8,3.4-5.8,5-9.1,5c-7.7,0.1-13.5-4.9-13.5-13.9c0-8.8,6-13.7,13.6-13.7
		c3.7,0,7.3,1.8,9,4.7L83.1,10.2z M65,23.3c0,5.4,3.8,8.7,8.5,8.7c11.4,0,11.4-17.4,0-17.4C68.9,14.6,65,17.9,65,23.3"/>
	<path class="st0" d="M97.6,0v14.3c1.7-3.1,6-4.7,9.2-4.7c7.6,0,13.3,4.7,13.3,13.7c0,8.7-5.8,13.7-13.4,13.7c-3.5,0-7-1.3-9.1-4.7
		l-0.9,4.2h-4.6V0H97.6z M97.9,23.3c0,5.2,3.8,8.6,8.4,8.6c4.6,0,8.3-3.3,8.3-8.6c0-5.4-3.7-8.5-8.3-8.5
		C101.7,14.7,97.9,18.2,97.9,23.3"/>
	<path class="st0" d="M37.7,36.4h-8V22.7c0-7.5,6.1-13.5,13.5-13.5h3.3v8h-3.3c-3,0-5.5,2.5-5.5,5.5V36.4z"/>
	<path class="st0" d="M13.5,9.2c-2,0-3.8,0.4-5.5,1.2V0.2H0v22.5v10.9v2.8h8v-2.8V22.7c0-3,2.5-5.5,5.5-5.5c3,0,5.5,2.5,5.5,5.5
		v13.7h8V22.7C27.1,15.3,21,9.2,13.5,9.2"/>
	<path class="st0" d="M34.4,6.2c0,3.3-2.7,6-6,6c-3.3,0-6-2.7-6-6c0-3.3,2.7-6,6-6C31.7,0.1,34.4,2.8,34.4,6.2"/>
	<path class="st0" d="M52.6,43.4c0.9,0,1.9,0.6,1.9,1.7c0,1.1-0.9,1.7-1.9,1.7c-0.9,0-1.9-0.6-1.9-1.7
		C50.7,43.9,51.7,43.4,52.6,43.4"/>
	<rect x="50.9" y="47.5" class="st0" width="3.3" height="8.7"/>
	<path class="st0" d="M61.3,56.2v-4.9c0-1.1-0.6-1.5-1.2-1.5c-0.8,0-1.5,0.5-1.5,1.7v4.7h-3.3v-8.9h2.3l0.7,1
		c0.8-0.9,1.9-1.2,2.8-1.2c1.9,0,3.5,1,3.5,4.2v4.9H61.3z"/>
	<path class="st0" d="M68.7,48.9v-0.4c0-0.8,0.5-1.1,1-1.1c0.4,0,0.8,0.1,1.2,0.4l1-2c-0.7-0.6-1.7-1-2.7-1c-1.8,0-3.8,1-3.8,3.6
		v0.4v2.6v4.8h3.3v-4.8h0.9l1.3-2.6H68.7z"/>
	<path class="st0" d="M80.9,51.8c0,3.2-2.6,4.6-5.1,4.6c-2.6,0-5.1-1.4-5.1-4.6c0-3.3,2.5-4.7,5.1-4.7
		C78.5,47.1,80.9,48.5,80.9,51.8 M77.7,51.8c0-1-0.7-1.9-1.8-1.9c-1.2,0-1.8,0.9-1.8,1.9c0,1,0.7,1.9,1.8,1.9
		C77,53.7,77.7,52.9,77.7,51.8"/>
	<path class="st0" d="M82,52.9c1.3,0.9,2.4,1,3.1,1c0.6,0,0.9-0.1,0.9-0.4c0-0.3-0.3-0.4-0.9-0.5c-1.7-0.1-3.8-0.8-3.8-2.9
		c0-2.1,2-2.9,4.1-2.9c1.4,0,2.8,0.4,3.6,1.1l-1.4,2c-0.5-0.3-1.5-0.6-2.2-0.5c-0.5,0-0.8,0.1-0.8,0.4c0,0.2,0.1,0.4,0.7,0.4
		c1.9,0.1,4.1,0.6,4.1,2.9c0,2.2-2,3-4.1,3c-1.5,0-3.3-0.4-4.3-1.2L82,52.9z"/>
	<path class="st0" d="M89.7,47.4v-2.2l3.3-0.4v2.6h2v2.5h-2v2.9c0,0.6,0.4,0.9,0.9,0.9c0.3,0,0.7-0.1,1-0.3l0.7,2.4
		c-0.8,0.4-1.6,0.6-2.6,0.6c-1.8,0-3.3-0.8-3.3-3.6v-2.9V47.4z"/>
	<path class="st0" d="M98.9,47.3l0,4.9c0,1.1,0.6,1.5,1.2,1.5c0.8,0,1.5-0.5,1.5-1.7l0-4.7l3.3,0l0,8.9l-2.3,0l-0.7-1
		c-0.8,0.9-1.9,1.2-2.8,1.2c-1.9,0-3.5-1-3.5-4.2l0-4.9L98.9,47.3z"/>
	<path class="st0" d="M112.1,45h3.3v11.2h-2.4l-0.7-1c-0.8,0.9-1.9,1.2-2.9,1.1c-2.6-0.2-4.1-1.8-4.1-4.6c0-2.7,1.7-4.6,4.3-4.6
		c1.1,0,2,0.4,2.5,1V45z M108.6,51.8c0,1.2,0.8,1.9,1.8,1.9c1.1,0,1.8-0.9,1.8-1.9c0-1.1-0.6-2.1-1.8-2.1
		C109.4,49.8,108.6,50.5,108.6,51.8"/>
	<path class="st0" d="M118.3,52.7c0.9,0,1.9,0.6,1.9,1.7c0,1.1-0.9,1.7-1.9,1.7c-0.9,0-1.9-0.6-1.9-1.7
		C116.4,53.3,117.3,52.7,118.3,52.7"/>
</g>
</svg>
