<?xml version="1.0" encoding="utf-8"?>
<!-- Generator: Adobe Illustrator 26.5.0, SVG Export Plug-In . SVG Version: 6.00 Build 0)  -->
<svg version="1.1" id="Layer_1" xmlns="http://www.w3.org/2000/svg" xmlns:xlink="http://www.w3.org/1999/xlink" x="0px" y="0px"
	 viewBox="0 0 236.2 44.5" style="enable-background:new 0 0 236.2 44.5;" xml:space="preserve">
<style type="text/css">
	.st0{fill:#FFFFFF;}
	.st1{fill:#FFFFFF;}
</style>
<g>
	<path class="st0" d="M6.4,0c3.1,0,6.3,1.9,6.3,5.7c0,3.7-3.2,5.6-6.3,5.6C3.2,11.3,0,9.4,0,5.7C0,1.9,3.2,0,6.4,0"/>
	<rect x="0.7" y="14" class="st1" width="11.3" height="29.8"/>
	<path class="st1" d="M36,43.7V27c0-3.7-2.1-5-4.2-5c-2.7,0-5.2,1.8-5.2,5.8v15.9H15.4V13.5h7.9l2.5,3.3c2.6-3,6.4-4.1,9.5-4
		c6.4,0.1,11.8,3.4,11.8,14.2v16.8H36z"/>
	<path class="st1" d="M61,18.7v-1.5c0-2.6,1.6-3.7,3.4-3.7c1.5,0,2.9,0.4,4.1,1.5l3.4-6.8c-2.3-2.2-5.6-3.3-9.1-3.3
		c-6.2,0-13,3.5-13,12.4v1.5v8.7v16.3H61V27.4h3.1l4.3-8.7H61z"/>
	<path class="st1" d="M102.7,28.6c0,11-8.8,15.8-17.3,15.8c-8.7,0-17.3-4.8-17.3-15.8c0-11.2,8.5-15.9,17.3-15.9
		C94.4,12.8,102.7,17.6,102.7,28.6 M91.7,28.6c0-3.5-2.3-6.6-6.2-6.6s-6.2,3.1-6.2,6.6c0,3.5,2.3,6.6,6.2,6.6
		C89.2,35.2,91.7,32.3,91.7,28.6"/>
	<path class="st1" d="M106.3,32.3c4.6,3,8.3,3.2,10.7,3.4c2,0,3.1-0.5,3.1-1.5c0-1-1-1.5-3.2-1.7c-5.9-0.2-13-2.6-13-9.9
		c0-7.3,6.9-9.9,14-9.9c4.9,0,9.4,1.5,12.4,3.7l-4.8,6.7c-1.7-1-5.1-1.9-7.6-1.8c-1.6,0-2.7,0.4-2.7,1.5c0,0.6,0.4,1.4,2.3,1.5
		c6.3,0.2,13.9,2,13.9,10c0,7.5-6.8,10.3-14.1,10.3c-5.3,0-11.2-1.5-14.6-4L106.3,32.3z"/>
	<path class="st1" d="M132.5,13.7V6.1l11.2-1.2v8.8h6.8v8.6h-6.9v9.9c0.1,2.1,1.3,2.9,3,2.9c1.1,0,2.4-0.4,3.3-1l2.4,8.3
		c-2.6,1.5-5.6,2-8.7,2c-6,0-11.4-2.8-11.2-12.2v-9.9V13.7z"/>
	<path class="st1" d="M164,13.5v16.7c0,3.7,2.1,5,4.2,5c2.7,0,5.2-1.7,5.2-5.6V13.5h11.1v30.2h-7.9l-2.5-3.3c-2.6,3-6.4,4.1-9.6,4
		c-6.4-0.1-11.8-3.4-11.8-14.2V13.5H164z"/>
	<path class="st1" d="M209,5.7h11.3v38h-8l-2.5-3.2c-2.6,2.9-6.6,4-10,3.8c-8.9-0.6-13.8-6.1-13.8-15.7c0-9.2,5.9-15.8,14.7-15.8
		c3.9,0,6.7,1.2,8.4,3.2V5.7z M197.1,28.6c0,4.2,2.7,6.6,6.1,6.6c3.8,0,6.1-3.1,6.1-6.3c0-3.7-2.1-7-6.1-7
		C199.8,21.9,197.1,24.4,197.1,28.6"/>
	<path class="st0" d="M229.9,31.9c3.1,0,6.3,1.9,6.3,5.7c0,3.7-3.2,5.6-6.3,5.6c-3.2,0-6.4-1.9-6.4-5.6
		C223.5,33.8,226.7,31.9,229.9,31.9"/>
</g>
</svg>
