<?xml version="1.0" encoding="utf-8"?>
<!-- Generator: Adobe Illustrator 26.5.0, SVG Export Plug-In . SVG Version: 6.00 Build 0)  -->
<svg version="1.1" id="Layer_1" xmlns="http://www.w3.org/2000/svg" xmlns:xlink="http://www.w3.org/1999/xlink" x="0px" y="0px"
	 viewBox="0 0 145.3 129.8" style="enable-background:new 0 0 145.3 129.8;" xml:space="preserve">
<style type="text/css">
	.st0{opacity:0.24;fill:#FFFFFF;enable-background:new    ;}
	.st1{fill:#3FB54A;}
	.st2{fill:#FFFFFF;}
	.st3{fill:#44B049;}
	.st4{fill:#0D8D45;}
	.st5{fill:#106031;}
	.st6{fill:#034727;}
</style>
<g>
	<polygon class="st0" points="35.6,129.8 35.6,129.8 35.6,129.8 35.6,129.8 35.6,129.8 	"/>
	<polygon class="st1" points="35.6,129.8 35.6,129.8 35.6,129.8 	"/>
	<polygon class="st1" points="35.6,129.8 35.6,129.8 35.6,129.8 	"/>
	<polygon class="st1" points="35.6,129.8 35.6,129.8 35.6,129.8 	"/>
	<polygon class="st0" points="35.6,129.8 35.6,129.8 35.6,129.8 	"/>
	<polygon class="st1" points="35.6,129.8 35.6,129.8 35.6,129.8 	"/>
	<polygon class="st1" points="35.6,129.8 35.6,129.8 35.6,129.8 	"/>
	<polygon class="st0" points="35.6,129.8 35.6,129.8 35.6,129.8 35.6,129.8 35.6,129.8 	"/>
	<polygon class="st1" points="35.6,129.8 35.6,129.8 35.6,129.8 35.6,129.8 35.6,129.8 	"/>
	<polygon class="st1" points="35.6,129.8 35.6,129.8 35.6,129.8 35.6,129.8 35.6,129.8 	"/>
	<polygon class="st1" points="35.6,129.8 35.6,129.8 35.6,129.8 35.6,129.8 35.6,129.8 	"/>
	<g>
		<path class="st2" d="M145.3,77.3h-4.4l-2.5-5.6h-12l-2.5,5.6h-4.4l12.8-28.6L145.3,77.3z M127.8,68.3h9.1l-4.6-10.2L127.8,68.3z"
			/>
		<path class="st2" d="M90.8,77.3h-4.1V48.7h4.1L90.8,77.3z"/>
		<path class="st2" d="M33.3,48.7v28.6l-18-18.5v18.5h-4.1V48.7l18,18.5V48.7H33.3z"/>
		<path class="st2" d="M118.3,77.3h-4.5l-9.4-13.9h3.9c1.5,0,2.9-0.5,3.9-1.6c2.1-2.2,2.1-5.6,0-7.7c-1-1-2.5-1.6-3.9-1.6h-6.8v24.7
			h-4.1V48.7h10.9c2.9,0,5.2,0.9,7,2.6c1.7,1.7,2.6,3.9,2.6,6.5c0,2-0.6,4-1.8,5.6c-1.3,1.6-3,2.7-5,3.1L118.3,77.3z"/>
		<path class="st2" d="M4.5,77.3H0.5V48.7h4.1V77.3z"/>
		<path class="st2" d="M49.2,61.1h-3.9c-2.3,0-4.2-1.9-4.2-4.2c0-2.3,1.9-4.2,4.2-4.2h8.1l1.7-3.9h-9.8c-4.5,0.1-8.1,3.8-8,8.3
			c0.1,4.4,3.6,7.9,8,8h3.9c2.3,0,4.2,1.9,4.2,4.2c0,2.3-1.9,4.2-4.2,4.2h-9.7l-1.8,3.9h11.5c4.5,0,8.1-3.6,8.1-8.1
			S53.7,61.1,49.2,61.1L49.2,61.1z"/>
		<path class="st2" d="M78.7,64.7c1.8-1.7,2.7-4,2.7-6.7c0-2.7-0.9-4.9-2.7-6.7c-1.8-1.7-4.1-2.6-6.9-2.6H61.3v28.6h4.1V52.6h6.4
			c1.5,0,2.9,0.5,3.9,1.6c2.1,2.2,2.1,5.6,0,7.7c-1,1-2.5,1.6-3.9,1.6h-3.5l2.6,3.9h0.9C74.6,67.3,76.9,66.4,78.7,64.7z"/>
	</g>
	<g>
		<polygon class="st3" points="85.8,36.3 85.8,36.3 85.8,36.3 		"/>
		<polygon class="st3" points="85.8,36.3 85.8,36.3 85.8,36.3 		"/>
		<polygon class="st3" points="85.8,36.3 85.8,36.3 85.8,36.3 		"/>
		<polygon class="st3" points="85.8,36.3 85.8,36.3 85.8,36.3 		"/>
		<polygon class="st3" points="85.8,36.3 85.8,36.3 85.8,36.3 		"/>
		<polygon class="st4" points="94.3,44.9 94.3,44.9 104.4,30.9 100.6,32 		"/>
		<polygon class="st4" points="85.8,36.3 94.3,31 94.3,26.1 85.8,36.3 		"/>
		<polygon class="st4" points="94.3,33.8 100.6,32 104.1,24.8 94.3,31 		"/>
		<polygon class="st3" points="116.6,27.3 104.4,30.9 94.3,44.9 		"/>
		<polygon class="st3" points="85.8,36.3 85.8,36.3 94.3,26.1 94.3,17.6 		"/>
		<polygon class="st3" points="104.1,24.8 100.6,32 104.4,30.9 112.7,19.4 		"/>
		<polygon class="st3" points="94.3,26.1 94.3,31 104.1,24.8 116.1,0 		"/>
		<polygon class="st5" points="94.3,33.8 94.3,44.9 94.3,44.9 94.3,44.9 100.6,32 		"/>
		<polygon class="st6" points="94.3,33.8 85.8,36.3 85.8,36.3 85.8,36.3 94.3,36.3 		"/>
		<polygon class="st3" points="85.8,36.3 85.8,36.3 85.8,36.3 		"/>
		<polygon class="st3" points="85.8,36.3 85.8,36.3 85.8,36.3 		"/>
		<polygon class="st3" points="85.8,36.3 85.8,36.3 85.8,36.3 		"/>
		<polygon class="st5" points="94.3,31 85.8,36.3 94.3,33.8 		"/>
		<polygon class="st3" points="85.8,36.3 85.8,36.3 85.8,36.3 		"/>
	</g>
	<path class="st3" d="M9.8,89.2h-4v1.9H8v1.8c-0.2,0.1-0.5,0.2-0.8,0.3c-0.4,0.1-0.7,0.1-1.1,0.1c-0.7,0-1.5-0.2-2.1-0.5
		c-0.6-0.3-1.1-0.8-1.4-1.4c-0.4-0.6-0.5-1.3-0.5-2c0-0.8,0.2-1.5,0.5-2.2c0.3-0.6,0.8-1.1,1.4-1.4c0.7-0.3,1.4-0.5,2.2-0.5
		c0.3,0,0.6,0,0.9,0.1c0.3,0.1,0.6,0.1,0.9,0.3c0.3,0.1,0.5,0.2,0.7,0.3l0.2,0.1l0.1-0.2l0.5-1.5l0-0.1l-0.1-0.1
		c-0.5-0.3-1-0.5-1.5-0.6c-0.6-0.2-1.3-0.2-1.9-0.2c-0.8,0-1.5,0.1-2.3,0.4C3,84,2.3,84.4,1.8,84.9c-0.6,0.5-1,1.2-1.3,1.9
		C0.1,87.7,0,88.6,0,89.5c0,1,0.2,2,0.8,2.9c0.5,0.9,1.2,1.6,2.1,2c1,0.5,2.1,0.8,3.2,0.7c0.4,0,0.7,0,1.1-0.1
		c0.4-0.1,0.7-0.1,1.1-0.3c0.3-0.1,0.7-0.2,1-0.4c0.2-0.1,0.5-0.3,0.7-0.4L10,94v-4.9H9.8z M23.2,94.8l-2.7-4.3
		c0.3-0.2,0.6-0.4,0.9-0.7c0.3-0.4,0.5-0.8,0.7-1.2c0.1-0.4,0.2-0.9,0.2-1.4c0-0.7-0.2-1.4-0.6-2c-0.4-0.6-0.9-1-1.5-1.3
		c-0.7-0.3-1.4-0.4-2.2-0.4h-3.2v11.7h2V91h1.7l2.6,4l0.1,0.1h2.3L23.2,94.8z M18.2,89.1h-1.5v-3.8h1.6c0.3,0,0.6,0.1,0.9,0.2
		c0.2,0.1,0.4,0.3,0.6,0.5c0.1,0.2,0.3,0.4,0.3,0.6c0.1,0.2,0.1,0.4,0.1,0.6c0,0.3-0.1,0.6-0.2,0.8c-0.1,0.3-0.3,0.6-0.6,0.7
		C19.1,89,18.7,89.1,18.2,89.1z M36.1,83.4h-1.8v7.5c0,0.4-0.1,0.8-0.3,1.2c-0.2,0.4-0.5,0.7-0.9,0.9c-0.4,0.2-0.9,0.3-1.3,0.3
		c-0.4,0-0.9-0.1-1.3-0.3c-0.4-0.2-0.7-0.5-0.9-0.9c-0.2-0.4-0.3-0.8-0.3-1.2v-7.5h-2v7.5c0,0.8,0.2,1.6,0.6,2.3
		c0.4,0.6,0.9,1.2,1.6,1.5c1.4,0.7,3.1,0.7,4.5,0c1.4-0.7,2.3-2.2,2.2-3.8v-7.5L36.1,83.4z M47.7,84.4c-0.7-0.7-1.8-1-3.1-1h-3.3
		v11.7h2v-4.1h1.5c0.6,0,1.3-0.1,1.8-0.3c0.5-0.2,0.9-0.5,1.2-0.9c0.3-0.4,0.5-0.8,0.7-1.3c0.1-0.4,0.2-0.9,0.2-1.4
		C48.8,86,48.4,85.1,47.7,84.4z M46.8,87.2c0,0.2,0,0.4-0.1,0.6c-0.1,0.2-0.2,0.4-0.3,0.6c-0.2,0.2-0.4,0.4-0.6,0.5
		c-0.3,0.1-0.7,0.2-1,0.2h-1.5v-3.8h1.6c0.3,0,0.6,0,0.9,0.2c0.2,0.1,0.4,0.3,0.6,0.5c0.1,0.2,0.2,0.4,0.3,0.6
		C46.8,86.8,46.8,87,46.8,87.2L46.8,87.2z M61.2,94.9l-5-11.8l0-0.1h-0.3l0,0.1l-5,11.8l-0.1,0.2h2l0-0.1l1.1-2.7h4L59,95l0,0.1h2.3
		L61.2,94.9z M57.3,90.5h-2.6l1.3-3.3L57.3,90.5z"/>
</g>
</svg>
