<?xml version="1.0" encoding="utf-8"?>
<!-- Generator: Adobe Illustrator 26.5.0, SVG Export Plug-In . SVG Version: 6.00 Build 0)  -->
<svg version="1.1" id="Layer_1" xmlns="http://www.w3.org/2000/svg" xmlns:xlink="http://www.w3.org/1999/xlink" x="0px" y="0px"
     viewBox="0 0 162.9 24.4" style="enable-background:new 0 0 162.9 24.4;" xml:space="preserve">
    <style type="text/css">
    svg{fill:#FFFFFF;}
    </style>
<g>
    <g>
        <path d="M90.6,0v24.4h72.4V0H90.6z M114.5,24H91V0.4h23.5V24z M138.5,24H115V0.4h23.5V24z M162.5,24h-23.5V0.4h23.5V24z"/>
        <g>
            <path d="M87.8,20.9h-2.7l-1.5-3.4h-7.3l-1.5,3.4h-2.7l7.8-17.4L87.8,20.9z M77.2,15.4h5.5L80,9.3L77.2,15.4z"/>
            <g>
                <path d="M54.8,20.9h-2.5V3.5h2.5V20.9z"/>
                <path d="M19.9,3.5v17.4L9,9.7v11.2H6.5V3.5l10.9,11.2V3.5H19.9z"/>
                <path d="M71.5,20.9h-2.7L63,12.5h2.4c1,0,1.8-0.3,2.4-0.9c0.6-0.6,0.9-1.4,0.9-2.3c0-1-0.3-1.7-0.9-2.4
                    c-0.6-0.6-1.4-0.9-2.4-0.9h-4.1v15h-2.5V3.5h6.6c1.8,0,3.2,0.5,4.2,1.6c1,1,1.6,2.3,1.6,4c0,1.3-0.4,2.5-1.1,3.4
                    c-0.7,1-1.8,1.6-3,1.9L71.5,20.9z"/>
                <path d="M2.5,20.9H0V3.5h2.5V20.9z"/>
                <path d="M29.6,11L29.6,11h-2.3h-0.1c-1.4,0-2.6-1.2-2.6-2.6s1.2-2.6,2.6-2.6h4.9l1.1-2.4h-6c-2.7,0-4.9,2.2-4.9,4.9
                    c0,2.7,2.2,4.9,4.9,4.9h0.1h2.2h0.1c1.4,0,2.6,1.2,2.6,2.6s-1.2,2.6-2.6,2.6h-5.9l-1.1,2.4h7c2.7,0,4.9-2.2,4.9-4.9
                    C34.5,13.2,32.3,11,29.6,11z"/>
                <g>
                    <path d="M47.4,13.2c1.1-1.1,1.6-2.4,1.6-4.1c0-1.6-0.5-3-1.6-4c-1.1-1.1-2.5-1.6-4.2-1.6h-6.3v17.4h2.5v-15h3.9
                        c1,0,1.8,0.3,2.4,0.9c0.6,0.6,0.9,1.4,0.9,2.3c0,1-0.3,1.7-0.9,2.4c-0.6,0.6-1.4,0.9-2.4,0.9h-2.1l1.6,2.4h0.5
                        C45,14.8,46.4,14.3,47.4,13.2z"/>
                </g>
            </g>
        </g>
<path d="M126.7,20.9c-1.2,0-2.3-0.3-3.3-0.8c-1-0.5-1.8-1.2-2.3-2.2c-0.6-0.9-0.9-2-0.9-3.3v-11h2.5v11c0,0.7,0.2,1.4,0.5,2
            c0.3,0.6,0.8,1.1,1.4,1.4c0.6,0.3,1.3,0.5,2,0.5c0.8,0,1.5-0.2,2.1-0.5c0.6-0.3,1.1-0.8,1.4-1.4c0.3-0.6,0.5-1.2,0.5-2v-11h2.5v11
            c0,1.2-0.3,2.3-0.9,3.3c-0.6,0.9-1.4,1.7-2.3,2.2C129,20.7,127.9,20.9,126.7,20.9z"/>
        <path d="M145.8,20.7V3.7h4.5c1.7,0,3.1,0.4,4.1,1.1c1,0.7,1.5,1.8,1.5,3.3c0,0.9-0.2,1.7-0.6,2.4c-0.3,0.5-0.8,1-1.4,1.3l-0.2,0.1
            l0.2,0.1c0.8,0.4,1.5,0.9,2,1.5c0.6,0.7,0.8,1.5,0.8,2.4c0,0.9-0.2,1.6-0.5,2.2c-0.3,0.6-0.8,1.1-1.3,1.5
            c-0.5,0.4-1.2,0.7-1.8,0.8c-0.7,0.2-1.4,0.3-2.1,0.3H145.8z M148.2,18.4h2.6c0.9,0,1.7-0.2,2.3-0.6c0.6-0.4,1-1,1-1.9
            c0-0.6-0.2-1.1-0.5-1.5c-0.3-0.4-0.8-0.6-1.3-0.8c-0.5-0.2-1.1-0.2-1.6-0.2h-2.4V18.4z M148.2,11h2.5c0.9,0,1.5-0.3,1.9-0.8
            c0.4-0.5,0.6-1.1,0.6-1.8c0-0.8-0.3-1.5-0.8-1.8c-0.5-0.4-1.2-0.6-2.1-0.6h-2.1V11z"/>
    </g>
    <g>
        <rect x="95.9" y="3.7" width="2.5" height="17.1"/>
        <polygon points="107.1,3.7 107.1,11 99.4,11 101.8,13.4 107.1,13.4 107.1,20.7 109.6,20.7 109.6,3.7         "/>
    </g>
</g>
</svg>