<?xml version="1.0" encoding="utf-8"?>
<!-- Generator: Adobe Illustrator 26.5.1, SVG Export Plug-In . SVG Version: 6.00 Build 0)  -->
<svg version="1.1" id="Layer_1" xmlns="http://www.w3.org/2000/svg" xmlns:xlink="http://www.w3.org/1999/xlink" x="0px" y="0px"
	 viewBox="0 0 324.8 279" style="enable-background:new 0 0 324.8 279;" xml:space="preserve">
<style type="text/css">
	.st0{fill:#939598;}
</style>
<g>
	<g>
		<path class="st0" d="M3.4,63.7v-63h17.5c6.3,0,11.6,0.9,15.9,2.8c4.3,1.9,7.9,4.4,10.6,7.6c2.7,3.2,4.7,6.6,6,10.5
			c1.2,3.8,1.9,7.6,1.9,11.5c0,4.7-0.8,8.9-2.5,12.7s-3.9,7-6.9,9.7c-2.9,2.7-6.3,4.7-10,6.1c-3.8,1.4-7.7,2.1-11.9,2.1H3.4z
			 M12.5,54.9h9.7c4.6,0,8.6-0.9,12.2-2.6c3.5-1.7,6.3-4.3,8.4-7.6c2.1-3.4,3.1-7.4,3.1-12.2c0-3.9-0.7-7.3-2-10.2s-3-5.2-5.2-7.1
			c-2.1-1.9-4.5-3.3-7.2-4.2c-2.7-0.9-5.4-1.4-8.2-1.4H12.5V54.9z"/>
		<path class="st0" d="M67,0.7h41.3v8.8H76v18.2h28.8v8.8H76v18.5h33.4v8.8H67V0.7z"/>
		<path class="st0" d="M117.8,32.2c0-4.3,0.8-8.5,2.5-12.3c1.7-3.9,4-7.3,6.9-10.3c3-3,6.4-5.3,10.3-7c3.9-1.7,8-2.6,12.4-2.6
			c4.4,0,8.6,0.9,12.5,2.6c3.9,1.7,7.4,4.1,10.3,7c3,3,5.3,6.4,7,10.3c1.7,3.9,2.5,8,2.5,12.3c0,4.5-0.8,8.6-2.5,12.5
			c-1.7,3.9-4,7.3-7,10.3c-3,3-6.4,5.3-10.3,6.9c-3.9,1.7-8.1,2.5-12.5,2.5c-4.4,0-8.5-0.8-12.4-2.5c-3.9-1.7-7.3-3.9-10.3-6.8
			c-3-2.9-5.3-6.3-6.9-10.2C118.6,41,117.8,36.7,117.8,32.2z M127.2,32.3c0,4.3,1,8.2,3,11.7c2,3.5,4.8,6.3,8.3,8.4
			c3.5,2.1,7.4,3.1,11.6,3.1c4.2,0,8-1,11.5-3.1c3.4-2.1,6.1-4.9,8.2-8.4c2-3.5,3-7.5,3-11.8s-1-8.3-3.1-11.9
			c-2.1-3.6-4.8-6.4-8.3-8.5c-3.4-2.1-7.3-3.1-11.5-3.1c-4.3,0-8.2,1.1-11.6,3.2c-3.4,2.1-6.2,5-8.2,8.5
			C128.2,24,127.2,28,127.2,32.3z"/>
	</g>
	<g>
		<path class="st0" d="M53.5,272.8c-0.9,0.8-2.1,1.5-3.6,2.3c-1.6,0.8-3.3,1.4-5.3,2c-1.9,0.6-3.9,1.1-6,1.4c-2,0.3-3.9,0.5-5.7,0.5
			c-6.7,0-12.5-1.3-17.5-4c-4.9-2.7-8.7-6.4-11.4-11c-2.7-4.6-4-9.9-4-15.8c0-5.4,0.9-10.2,2.6-14.3c1.7-4.2,4.1-7.7,7.1-10.5
			c3-2.8,6.4-5,10.3-6.5c3.9-1.5,7.9-2.2,12.3-2.2c3.8,0,7.2,0.4,10.4,1.3c3.2,0.9,6,2,8.3,3.3l-3,8.4c-1.2-0.7-2.6-1.3-4.3-2
			c-1.7-0.6-3.5-1.1-5.3-1.4s-3.5-0.5-5-0.5c-4.9,0-9.1,1-12.7,2.9c-3.6,1.9-6.4,4.6-8.3,8.2c-2,3.5-3,7.7-3,12.6
			c0,4.5,1,8.4,3,11.8c2,3.4,4.8,6,8.3,7.9c3.6,1.9,7.7,2.9,12.4,2.9c2.1,0,4.1-0.2,6.1-0.6c2-0.4,3.7-1,5.1-1.8v-11.6H32.1v-8.8
			h21.5V272.8z"/>
		<path class="st0" d="M84.3,215.3c4.4,0,8.3,0.8,11.7,2.3c3.4,1.5,6.1,3.8,8,6.7c1.9,2.9,2.9,6.5,2.9,10.8c0,2.5-0.4,5-1.1,7.4
			c-0.8,2.4-2,4.6-3.6,6.6c-1.7,2-3.9,3.5-6.6,4.7c-2.8,1.2-6.1,1.8-10.1,1.8h-9.3v22.7h-9v-63H84.3z M85.3,246.9
			c3.2,0,5.7-0.6,7.5-1.9c1.8-1.2,3-2.8,3.7-4.5c0.7-1.8,1-3.4,1-5c0-1.2-0.2-2.4-0.6-3.7c-0.4-1.3-1.1-2.5-2-3.7
			c-0.9-1.2-2.1-2.1-3.6-2.9c-1.5-0.7-3.4-1.1-5.6-1.1h-9.6v22.8H85.3z M95.9,252.2l16.3,26.1h-10.6l-16.6-25.9L95.9,252.2z"/>
		<path class="st0" d="M130.8,255.8c0,2.7,0.7,5.1,2,7.3s3.1,3.9,5.3,5.2c2.3,1.3,4.7,1.9,7.5,1.9c2.9,0,5.5-0.6,7.7-1.9
			c2.3-1.3,4-3,5.3-5.2c1.3-2.2,2-4.6,2-7.3v-40.5h8.9v40.7c0,4.6-1.1,8.6-3.2,12c-2.1,3.4-5,6.1-8.6,8c-3.6,1.9-7.7,2.9-12.1,2.9
			c-4.5,0-8.5-1-12.1-2.9c-3.6-1.9-6.5-4.6-8.6-8c-2.1-3.4-3.2-7.5-3.2-12v-40.7h9.1V255.8z"/>
		<path class="st0" d="M201.6,215.3c7,0,12.4,1.7,16.3,5.2c3.9,3.5,5.9,8.3,5.9,14.6c0,2.5-0.4,5-1.1,7.4c-0.8,2.4-2,4.6-3.6,6.6
			s-3.8,3.6-6.5,4.8c-2.7,1.2-6,1.8-9.9,1.8h-9.3v22.6h-9v-63H201.6z M202.6,246.9c2.4,0,4.4-0.4,6-1.2c1.6-0.8,2.8-1.8,3.7-3
			c0.9-1.2,1.5-2.5,1.9-3.8c0.4-1.3,0.6-2.5,0.6-3.6c0-1.2-0.2-2.4-0.6-3.7c-0.4-1.3-1-2.5-1.9-3.6c-0.9-1.1-2.1-2.1-3.6-2.8
			c-1.5-0.7-3.4-1.1-5.6-1.1h-9.6v22.8H202.6z"/>
		<path class="st0" d="M234.5,215.3h41.3v8.8h-32.2v18.2h28.8v8.8h-28.8v18.5H277v8.8h-42.5V215.3z"/>
	</g>
	<path d="M324.8,180.1H315l-5.5-12.3h-26.7l-5.5,12.3h-9.8l28.4-63.5L324.8,180.1z M286,160.2h20.3l-10.1-22.6L286,160.2z"/>
	<g>
		<path d="M203.9,180.1h-9.1v-63.5h9.1V180.1z"/>
		<path d="M76.2,116.6v63.5l-39.9-41.1v41.1h-9.1v-63.5l39.9,41.1v-41.1H76.2z"/>
		<path d="M265,180.1h-10l-20.9-30.8h8.7c3.5,0,6.4-1.1,8.7-3.4c2.3-2.2,3.4-5.1,3.4-8.5c0-3.5-1.1-6.4-3.4-8.6
			c-2.3-2.3-5.2-3.4-8.7-3.4h-15.1v54.9h-9.1v-63.5h24.1c6.4,0,11.6,1.9,15.5,5.7c3.8,3.8,5.7,8.6,5.7,14.5c0,4.8-1.4,9-4.1,12.5
			c-2.7,3.5-6.4,5.8-11.2,6.9L265,180.1z"/>
		<path d="M12.5,180.1H3.4v-63.5h9.1V180.1z"/>
		<path d="M111.7,144.1h-0.2h-8.2h-0.2c-5.2,0-9.4-4.2-9.4-9.4c0-5.2,4.2-9.4,9.4-9.4h18l3.8-8.6h-21.8c-10,0-18,8.1-18,18
			c0,10,8.1,18,18,18h0.2h8.2h0.2c5.2,0,9.4,4.2,9.4,9.4s-4.2,9.4-9.4,9.4H90.1l-3.9,8.6h25.5c10,0,18-8.1,18-18
			C129.7,152.1,121.6,144.1,111.7,144.1z"/>
		<g>
			<path d="M177,152.1c3.9-3.9,5.9-8.8,5.9-14.9c0-6-2-10.9-5.9-14.8c-4-3.9-9.1-5.8-15.3-5.8h-23.2v63.5h9.1v-54.9h14.2
				c3.5,0,6.4,1.1,8.7,3.4c2.3,2.2,3.4,5.1,3.4,8.5c0,3.5-1.1,6.4-3.4,8.6c-2.3,2.3-5.2,3.4-8.7,3.4h-7.8l5.8,8.6h2
				C167.9,157.9,173.1,156,177,152.1z"/>
		</g>
	</g>
	<polygon points="211.7,108.1 211.7,108.1 211.7,108.1 211.7,108.1 261.2,69.2 234,77.2 252.4,51.6 233.3,63.7 260.1,8.6 
		211.7,66.6 211.7,47.7 192.8,89.2 192.8,89.2 192.8,89.2 211.7,89.2 	"/>
</g>
</svg>
