<?xml version="1.0" encoding="utf-8"?>
<!-- Generator: Adobe Illustrator 26.5.0, SVG Export Plug-In . SVG Version: 6.00 Build 0)  -->
<svg version="1.1" id="Layer_1" xmlns="http://www.w3.org/2000/svg" xmlns:xlink="http://www.w3.org/1999/xlink" x="0px" y="0px"
	 viewBox="0 0 115.7 36.4" style="enable-background:new 0 0 115.7 36.4;" xml:space="preserve">
<style type="text/css">
	.st0{fill:#FFFFFF;}
	.st1{fill:#FFFFFF;}
</style>
<g>
	<g>
		<path class="st0" d="M33.5,36c-1.2,0-2.1-0.4-2.1-1.5c0-0.2,0.1-1,0.2-1.5l6.4-27.8c0.2-1,0.3-1.6,0.3-2c0-1.3-0.8-1.6-1.6-1.8
			L37.1,0h11.1c1.2,0,2.1,0.4,2.1,1.5c0,0.2-0.1,1-0.2,1.5l-6.4,27.8c-0.2,1-0.3,1.6-0.3,2c0,1.3,0.8,1.6,1.6,1.8L44.6,36H33.5z"/>
		<path class="st1" d="M51.5,36c-1.2,0-2.1-0.4-2.1-1.5c0-0.2,0.1-1,0.2-1.5L56,5.1c0.2-1,0.3-1.6,0.3-2c0-1.3-0.8-1.6-1.6-1.8L55,0
			h21.2c4,0,7.2,0.9,7.2,6.1c0,3-1.2,10.7-5,15.1c-1.7,2-4.1,2.4-7,2.4h-8.1l-1.7,7.3c-0.2,1-0.3,1.6-0.3,2c0,1.3,0.8,1.6,1.6,1.8
			L62.5,36H51.5z M67.7,16.3c0.8,0,1.9-0.2,2.7-0.9c1.5-1.4,2.2-4.3,2.2-5.9c0-2.3-1.8-2.3-3.2-2.3H67l-2.1,9.1H67.7z"/>
		<path class="st1" d="M94.3,36.4c-6.7,0-11.6-0.5-11.6-8.4c0-3.9,3.4-21.9,7.6-25.6C92.2,0.7,93.9,0,98,0h17.7l-1.1,4.9
			c-0.3,1.2-0.6,2.4-2.8,2.4h-9c-2.2,0-3.8,0.5-4.5,2.8c-1.5,5-3.5,12.3-3.5,15.1c0,2.4,1.2,3.3,3.7,3.3c3,0,3.3-1.9,3.8-3.6
			l1.2-5.2h-1.3c-0.9,0-2.7,0-2.7-1.5c0-0.4,0.1-0.9,0.2-1.3l0.9-3.8h11c1.2,0,2.7,0.1,2.7,1.8c0,0.4-0.1,0.9-0.2,1.4l-3.4,15
			c-1,4.3-1.5,5.3-9.3,5.3H94.3z"/>
	</g>
</g>
<path class="st0" d="M3.1,8.4c0-4.4,13.6-7.9,30.4-8c0.2,0,0.4,0,0.6,0l0.1-0.3c-0.2,0-0.5,0-0.7,0C11.3,0.1,4.3,4.8,2.5,6.5
	c-1.4,1.3-2.1,2.9-2.3,5c-0.3,2.3-0.2,8.9,0.1,11.2c0.3,2.1,0.9,4.1,2.3,5.5c1.5,1.6,7.2,6.3,23.6,7.5l4.4-19.3
	C15.1,15.9,3.1,12.5,3.1,8.4z"/>
<path class="st0" d="M9.4,6.9c0,3,9.6,5.5,21.8,5.8l0.1-0.4c-0.1,0-0.3,0-0.4,0c-0.1,0-0.1,0-0.2,0c-0.3,0-0.7,0-1,0
	c0,0-0.1,0-0.1,0c-0.4,0-0.7,0-1.1-0.1c-0.1,0-0.2,0-0.2,0c-0.3,0-0.7,0-1-0.1c-0.1,0-0.1,0-0.2,0c-0.3,0-0.6-0.1-1-0.1
	c0,0-0.1,0-0.1,0c-0.3,0-0.7-0.1-1-0.1c-0.1,0-0.1,0-0.2,0c-0.3,0-0.7-0.1-1-0.1c0,0-0.1,0-0.1,0c-0.3,0-0.6-0.1-0.9-0.1
	c0,0-0.1,0-0.1,0c-0.3,0-0.6-0.1-0.9-0.1c0,0-0.1,0-0.1,0c-0.6-0.1-1.2-0.2-1.8-0.3c0,0-0.1,0-0.1,0c-0.3-0.1-0.6-0.1-0.9-0.2
	c0,0,0,0-0.1,0c-0.6-0.1-1.1-0.3-1.6-0.4c0,0,0,0,0,0c-1.2-0.3-2.2-0.7-3.1-1.1c0.3-2.9,8.7-5.2,19.2-5.3l0.5-2c-0.1,0-0.1,0-0.2,0
	C21.3,2.2,12,4.8,11.9,8.1c-0.3-0.3-0.4-0.7-0.4-1c0-2.9,9.8-5.3,22-5.3c0.1,0,0.2,0,0.3,0l0.1-0.6c-0.1,0-0.3,0-0.4,0
	C20.2,1.1,9.4,3.7,9.4,6.9z"/>
<path d="M11.4,7.1c0,0.4,0.1,0.7,0.4,1c0.1-3.3,9.4-5.9,21.6-5.9c0.1,0,0.1,0,0.2,0l0.1-0.5c-0.1,0-0.2,0-0.3,0
	C21.3,1.8,11.4,4.1,11.4,7.1z"/>
<path class="st0" d="M28,10.4c0,0.6,1.4,1.2,3.4,1.4l0.6-2.8C29.8,9.1,28,9.7,28,10.4z"/>
</svg>
