<?xml version="1.0" encoding="utf-8"?>
<!-- Generator: Adobe Illustrator 26.5.0, SVG Export Plug-In . SVG Version: 6.00 Build 0)  -->
<svg version="1.1" id="Layer_1" xmlns="http://www.w3.org/2000/svg" xmlns:xlink="http://www.w3.org/1999/xlink" x="0px" y="0px"
	 viewBox="0 0 203.9 39.1" style="enable-background:new 0 0 203.9 39.1;" xml:space="preserve">
<style type="text/css">
	.st0{fill:#FFFFFF;}
	.st1{fill:#FFFFFF;}
	.st2{fill:#FFFFFF;}
	.st3{fill:#FFFFFF;}
</style>
<g>
	<g>
		<path style="fill:#FFFFFF" class="st0" d="M62,12.5c2.7,0,4.7,1.8,4.7,5.4v8.3c0,1-0.6,1.3-1.5,1.3c-1,0-1.6-0.3-1.6-1.3v-7.9c0-1.7-0.8-2.9-2.4-2.9
			c-1.6,0-3,1-3,3.9v6.9c0,1-0.6,1.3-1.5,1.3c-1,0-1.6-0.3-1.6-1.3v-7.9c0-1.7-0.8-2.9-2.4-2.9c-1.6,0-3,1-3,3.9v6.9
			c0,1-0.7,1.3-1.6,1.3c-0.9,0-1.5-0.3-1.5-1.3V13.9c0-1,0.6-1.3,1.6-1.3c0.9,0,1.6,0.3,1.6,1.3v0.9c0.8-1.3,2.2-2.2,3.9-2.2
			c1.7,0,3.2,0.8,3.9,2.5C58.4,13.5,59.9,12.5,62,12.5z"/>
		<path style="fill:#FFFFFF" class="st0" d="M75.8,27.6c-4.5,0-6.7-3.4-6.7-7.6c0-4.2,2.3-7.5,6.7-7.5c4.5,0,6.8,3.3,6.8,7.5
			C82.6,24.2,80.3,27.6,75.8,27.6z M75.8,15.4c-2.7,0-3.6,2.4-3.6,4.7c0,2.2,0.9,4.7,3.6,4.7c2.8,0,3.6-2.4,3.6-4.7
			C79.4,17.7,78.7,15.4,75.8,15.4z"/>
		<path style="fill:#FFFFFF" class="st0" d="M83.6,33.3c-0.7,0-1.4-0.1-1.9-0.3c-0.6-0.3-0.9-0.6-0.9-1.2c0-0.7,0.4-1.5,1.1-1.5c0.5,0,0.9,0.2,1.5,0.2
			c1.3,0,1.6-1,1.6-2.4V13.9c0-1,0.6-1.3,1.6-1.3c1,0,1.6,0.3,1.6,1.3v14.3C88.2,31,87.1,33.3,83.6,33.3z M86.6,6.9
			c1,0,1.8,0.8,1.8,1.8c0,1-0.8,1.7-1.8,1.7c-1,0-1.7-0.8-1.7-1.7C84.9,7.7,85.7,6.9,86.6,6.9z"/>
		<path style="fill:#FFFFFF" class="st0" d="M96.4,27.6c-3.4,0-5.8-2.8-5.8-7.6c0-4.5,2.3-7.5,6.1-7.5c1.9,0,2.9,0.9,3.6,1.9v-0.5c0-1,0.6-1.3,1.6-1.3
			c0.9,0,1.5,0.3,1.5,1.3v12.3c0,1.1-0.5,1.3-1.6,1.3c-0.9,0-1.5-0.2-1.5-1.2v-0.8C99.7,26.6,98.5,27.6,96.4,27.6z M100.3,18.9
			c0-1.9-1.1-3.5-3.1-3.5c-2.3,0-3.4,2.1-3.4,4.7c0,3,1.3,4.7,3.4,4.7c2.2,0,3.1-1.8,3.1-3.5V18.9z"/>
		<path style="fill:#FFFFFF" class="st0" d="M111.8,33.3c-1.6,0-3.1-0.5-4-1c-0.7-0.4-1-0.8-1-1.4c0-0.8,0.6-1.6,1.3-1.6c0.4,0,0.7,0.1,1.2,0.4
			c0.7,0.4,1.6,0.8,2.7,0.8c2.7,0,3.6-1.8,3.6-4.3v-0.7c-0.7,1.2-1.8,2-3.9,2c-3.4,0-5.8-2.8-5.8-7.6c0-4.5,2.3-7.5,6.1-7.5
			c1.9,0,3,0.9,3.6,1.9v-0.5c0-1,0.6-1.3,1.6-1.3c0.9,0,1.5,0.3,1.5,1.3V26C118.7,30.6,116.2,33.3,111.8,33.3z M115.5,18.9
			c0-1.9-1.1-3.5-3.1-3.5c-2.3,0-3.4,2.1-3.4,4.7c0,3,1.3,4.7,3.4,4.7c2.2,0,3.1-1.8,3.1-3.5V18.9z"/>
		<path style="fill:#FFFFFF" class="st0" d="M126.9,27.6c-3.4,0-5.8-2.8-5.8-7.6c0-4.5,2.3-7.5,6.1-7.5c1.9,0,2.9,0.9,3.6,1.9v-0.5c0-1,0.6-1.3,1.6-1.3
			c0.9,0,1.5,0.3,1.5,1.3v12.3c0,1.1-0.5,1.3-1.6,1.3c-0.9,0-1.5-0.2-1.5-1.2v-0.8C130.2,26.6,129,27.6,126.9,27.6z M130.8,18.9
			c0-1.9-1.1-3.5-3.1-3.5c-2.3,0-3.4,2.1-3.4,4.7c0,3,1.3,4.7,3.4,4.7c2.2,0,3.1-1.8,3.1-3.5V18.9z"/>
		<path style="fill:#FFFFFF" class="st0" d="M140.5,19.7v6.5c0,1.1-0.5,1.3-1.6,1.3c-0.9,0-1.6-0.3-1.6-1.3V13.9c0-1,0.6-1.3,1.6-1.3
			c0.9,0,1.5,0.2,1.5,1.3v0.8c0.6-1.2,1.7-2.1,3.5-2.1c0.7,0,1.2,0.1,1.6,0.4c0.4,0.2,0.7,0.6,0.7,1.1c0,1.1-0.7,1.7-1.2,1.7
			c-0.5,0-0.8-0.3-1.6-0.3C141.7,15.5,140.5,16.9,140.5,19.7z"/>
		<path style="fill:#FFFFFF" class="st0" d="M152.6,27.6c-3.4,0-5.8-2.8-5.8-7.6c0-4.5,2.3-7.5,6.1-7.5c1.9,0,2.9,0.9,3.6,1.9v-0.5c0-1,0.6-1.3,1.6-1.3
			c0.9,0,1.5,0.3,1.5,1.3v12.3c0,1.1-0.5,1.3-1.6,1.3c-0.9,0-1.5-0.2-1.5-1.2v-0.8C155.9,26.6,154.7,27.6,152.6,27.6z M156.5,18.9
			c0-1.9-1.1-3.5-3.1-3.5c-2.3,0-3.4,2.1-3.4,4.7c0,3,1.3,4.7,3.4,4.7c2.2,0,3.1-1.8,3.1-3.5V18.9z"/>
		<path style="fill:#FFFFFF" class="st0" d="M171.4,17.5c-0.9,1.1-1.7,1.9-2.8,2.9c-1.7,1.5-3.3,3.2-3.9,4.3h6.4c1,0,1.6,0.3,1.6,1.3c0,1-0.5,1.4-1.6,1.4
			h-8.3c-1.1,0-1.8-0.6-1.8-1.7c0-0.8,0.5-1.8,1.2-2.9c0.9-1.3,2.1-2.6,3.8-3.9c1.3-1,2.5-2.2,3.1-3.2h-5.8c-1,0-1.6-0.4-1.6-1.4
			c0-1,0.7-1.3,1.6-1.3h7.9c1.1,0,1.8,0.3,1.8,1.3C173,15,172.6,16.1,171.4,17.5z M164.1,5.8c0.4,0,0.8,0.2,1.2,0.5l2.2,1.4l2.3-1.4
			c0.3-0.2,0.7-0.5,1.1-0.5c0.7,0,1.2,0.7,1.2,1.3c0,0.5-0.2,0.8-0.9,1.3l-2.4,1.4c-0.4,0.2-0.7,0.4-1.3,0.4c-0.5,0-0.9-0.2-1.2-0.4
			l-2.3-1.3c-0.9-0.5-1-0.9-1-1.3C162.9,6.5,163.5,5.8,164.1,5.8z"/>
		<path style="fill:#FFFFFF" class="st0" d="M179.4,27.6c-3.4,0-5.8-2.8-5.8-7.6c0-4.5,2.3-7.5,6.1-7.5c1.9,0,2.9,0.9,3.6,1.9v-0.5c0-1,0.6-1.3,1.6-1.3
			c0.9,0,1.5,0.3,1.5,1.3v12.3c0,1.1-0.5,1.3-1.6,1.3c-0.9,0-1.5-0.2-1.5-1.2v-0.8C182.7,26.6,181.5,27.6,179.4,27.6z M183.3,18.9
			c0-1.9-1.1-3.5-3.1-3.5c-2.3,0-3.4,2.1-3.4,4.7c0,3,1.2,4.7,3.4,4.7c2.2,0,3.1-1.8,3.1-3.5V18.9z"/>
		<path style="fill:#FFFFFF" class="st0" d="M190.4,27.6c-0.6,0-1.1-0.4-1.1-1.1c0-0.6,0.4-1.1,1.1-1.1c0.6,0,1.1,0.5,1.1,1.1
			C191.5,27.1,191,27.6,190.4,27.6z"/>
		<path style="fill:#FFFFFF" class="st0" d="M194.7,23.4v3.5c0,0.6-0.3,0.7-0.8,0.7c-0.5,0-0.8-0.2-0.8-0.7v-6.6c0-0.5,0.3-0.7,0.9-0.7
			c0.5,0,0.8,0.1,0.8,0.7v0.4c0.3-0.6,0.9-1.1,1.9-1.1c0.4,0,0.7,0.1,0.9,0.2c0.2,0.1,0.4,0.3,0.4,0.6c0,0.6-0.3,0.9-0.6,0.9
			c-0.2,0-0.4-0.1-0.9-0.1C195.3,21.1,194.7,21.9,194.7,23.4z"/>
		<path style="fill:#FFFFFF" class="st0" d="M201,27.6c-1.2,0-2-0.4-2.5-0.7c-0.2-0.2-0.3-0.3-0.3-0.7c0-0.3,0.3-0.8,0.7-0.8c0.1,0,0.3,0.1,0.5,0.2
			c0.4,0.3,1.1,0.5,1.6,0.5c0.6,0,1.2-0.2,1.2-0.8c0-0.4-0.4-0.7-1.3-0.9c-1.1-0.3-2.6-0.6-2.6-2.4c0-1.6,1.2-2.4,2.9-2.4
			c1.1,0,1.9,0.4,2.3,0.8c0.2,0.2,0.3,0.4,0.3,0.6c0,0.4-0.3,0.8-0.7,0.8c-0.3,0-0.5-0.1-0.7-0.3c-0.4-0.3-0.8-0.4-1.3-0.4
			c-0.8,0-1.1,0.4-1.1,0.8c0,0.7,0.7,0.8,1.4,1c1.3,0.3,2.5,0.7,2.5,2.3C203.9,26.6,202.7,27.6,201,27.6z"/>
	</g>
	<g>
		<linearGradient id="SVGID_1_" gradientUnits="userSpaceOnUse" x1="19.5353" y1="37.0377" x2="19.5353" y2="7.9416">
			<stop  offset="0" style="stop-color:#0C446D"/>
			<stop  offset="1" style="stop-color:#0B74B9"/>
		</linearGradient>
		<path style="fill:#FFFFFF" class="st1" d="M30.4,2.8H8.6C7,2.8,5.6,3.4,4.5,4.5C3.4,5.6,2.8,7,2.8,8.6v21.8c0,1.6,0.7,3.1,1.7,4.1
			c1.1,1.1,2.5,1.7,4.1,1.7h21.8c1.6,0,3.1-0.7,4.1-1.7c1.1-1.1,1.7-2.5,1.7-4.1V8.6c0-1.6-0.7-3.1-1.7-4.1
			C33.5,3.4,32,2.8,30.4,2.8z M15.8,33.5H9.5v-3.2l3.2-3.2l3.2,3.2V33.5z M30.3,19.7c0,2.4-2.5,6.2-6.5,6.2c-4,0-8,0-8,0V29
			l-3.2-3.2L9.5,29V6c0,0,10.8,0,14.3,0c3.5,0,6.5,2.9,6.5,6.2C30.3,15.5,30.3,17.3,30.3,19.7z"/>
		
			<linearGradient id="SVGID_00000097496558665293107610000017895422355735745464_" gradientUnits="userSpaceOnUse" x1="20.1631" y1="37.0377" x2="20.1631" y2="7.9416">
			<stop  offset="0" style="stop-color:#0C446D"/>
			<stop  offset="1" style="stop-color:#0B74B9"/>
		</linearGradient>
		<path style="fill:#FFFFFF;" d="M22.4,11.8c-2,0-6.6,0-6.6,0v8.5
			c0,0,4.2,0,6.5,0c2.3,0,2.3-2.3,2.3-2.3v-4.1C24.5,13.9,24.3,11.8,22.4,11.8z"/>
		
			<linearGradient id="SVGID_00000152254481503079513670000013915789873628701102_" gradientUnits="userSpaceOnUse" x1="19.5353" y1="37.0377" x2="19.5353" y2="7.9416">
			<stop  offset="0" style="stop-color:#0C446D"/>
			<stop  offset="1" style="stop-color:#0B74B9"/>
		</linearGradient>
		<path style="fill:#FFFFFF;" d="M32.1,0H7C3.1,0,0,3.1,0,7v25.1
			c0,3.9,3.1,7,7,7h25.1c3.9,0,7-3.1,7-7V7C39.1,3.1,35.9,0,32.1,0z M36.7,30.4c0,3.5-2.8,6.3-6.3,6.3H8.6c-3.5,0-6.3-2.8-6.3-6.3
			V8.6c0-3.5,2.8-6.3,6.3-6.3h21.8c3.5,0,6.3,2.8,6.3,6.3V30.4z"/>
	</g>
</g>
</svg>