<?xml version="1.0" encoding="utf-8"?>
<!-- Generator: Adobe Illustrator 26.5.0, SVG Export Plug-In . SVG Version: 6.00 Build 0)  -->
<svg version="1.1" id="Layer_1" xmlns="http://www.w3.org/2000/svg" xmlns:xlink="http://www.w3.org/1999/xlink" x="0px" y="0px"
	 viewBox="0 0 172.4 37.8" style="enable-background:new 0 0 172.4 37.8;" xml:space="preserve">
<style type="text/css">
	.st0{fill:#FFFFFF;}
</style>
<path class="st0" d="M9.9,0c6,0,9.8,4.2,9.8,10c0,5.9-3.9,10-9.9,10S0,15.9,0,10C0,4.1,3.9,0,9.9,0z M9.9,17.8
	c4.4,0,7.1-2.9,7.1-7.8c0-5-2.8-7.9-7.2-7.9C5.4,2.2,2.7,5,2.7,10C2.7,15,5.5,17.8,9.9,17.8z"/>
<path class="st0" d="M31.5,9.4c1.8,1.1,3.2,2.6,3.2,5.1c0,3.5-2.9,5.4-6.1,5.4c-1.4,0-2.9-0.4-4-1c-0.7-0.4-1.3-1-1.3-1.6
	c0-0.6,0.5-1.2,1.1-1.2c0.9,0,1.8,1.7,4.2,1.7c2,0,3.6-1.2,3.6-3.1c0-1.8-1.3-2.8-2.5-3.5c-1.9-1.1-5.8-2.4-5.8-6.1
	c0-2.9,2.4-4.9,5.8-4.9c2.5,0,4.8,1.2,4.8,2.2c0,0.5-0.4,1.2-1.1,1.2c-0.8,0-1.7-1.2-3.7-1.2c-1.9,0-3.2,1.1-3.2,2.6
	C26.3,7.3,29.4,8.1,31.5,9.4z"/>
<path class="st0" d="M42.5,18.4c0,0.4,0,0.7-0.2,1c-0.2,0.3-0.6,0.4-1.1,0.4c-0.5,0-0.9-0.2-1.1-0.4c-0.2-0.3-0.2-0.6-0.2-1V1.7
	c0-0.4,0-0.7,0.2-1c0.2-0.3,0.6-0.4,1.1-0.4c0.5,0,0.9,0.2,1.1,0.4c0.2,0.3,0.2,0.6,0.2,1V18.4z"/>
<path class="st0" d="M63.7,17.1c0,0.9-0.2,1.4-1.7,1.9c-1.4,0.5-3,0.9-4.8,0.9c-5.6,0-10.2-3.3-10.2-9.9c0-7.1,5.3-9.9,10.2-9.9
	c1.9,0,3.7,0.4,5.2,1.2c0.9,0.5,1.2,0.8,1.2,1.3c0,0.6-0.4,1.3-1,1.3c-0.5,0-1-0.5-2.1-0.9c-0.8-0.3-2.1-0.6-3.5-0.6
	c-3.5,0-7.3,2-7.3,7.5c0,5.2,3.4,7.8,7.5,7.8c2.3,0,4-0.8,4-0.8v-5.3c0-0.4,0-0.7,0.2-1c0.2-0.3,0.6-0.4,1.1-0.4
	c0.5,0,0.9,0.2,1.1,0.4c0.2,0.3,0.2,0.6,0.2,1V17.1z"/>
<path class="st0" d="M80.9,16.1c1.2-1.4,1.2-3.2,1.2-4.6V1.7c0-0.4,0-0.7,0.2-1c0.2-0.3,0.6-0.4,1.1-0.4s0.9,0.2,1.1,0.4
	c0.2,0.3,0.2,0.6,0.2,1v9.7c0,1.8,0,4.3-1.7,6.2c-1.3,1.5-3.4,2.3-6.3,2.3c-3.1,0-5-0.9-6.3-2.3c-1.8-2-1.8-4.1-1.8-6.3V1.7
	c0-0.4,0-0.7,0.2-1c0.2-0.3,0.6-0.4,1.1-0.4c0.5,0,0.9,0.2,1.1,0.4C71,1,71,1.3,71,1.7v9.8c0,1.4,0,3.2,1.2,4.6
	c0.9,1.1,2.4,1.7,4.4,1.7C78.5,17.8,80,17.2,80.9,16.1z"/>
<path class="st0" d="M92,18.4c0,0.4,0,0.7-0.2,1c-0.2,0.3-0.6,0.4-1.1,0.4c-0.5,0-0.9-0.2-1.1-0.4c-0.2-0.3-0.2-0.6-0.2-1V2.2
	c0-0.8,0-1.4,1.3-1.7c0.6-0.1,1.6-0.3,2.8-0.3c1.5,0,3.2,0.2,4.5,0.9c1.7,0.9,2.7,2.5,2.7,4.5c0,2.5-1.3,4.3-3.7,5.3l5.3,7.4
	c0.5,0.6,0.4,1.4-1,1.4c-1.1,0-1.4-0.5-1.9-1.2l-3.5-5c-0.9-1.3-1.4-2.2-1.4-2.2s-0.6,0.1-1.5,0.1c-0.8,0-1.1-0.1-1.1-0.1V18.4z
	 M92,9.4c0,0,0.4,0.1,1.1,0.1c3.2,0,5-1.1,5-3.6c0-2.7-2.1-3.4-4.4-3.4c-0.9,0-1.7,0.1-1.7,0.1V9.4z"/>
<path class="st0" d="M117.6,13.3h-7.1l-2,5.2c-0.3,0.7-0.5,1.2-1.5,1.2c-0.8,0-1.2-0.3-1.2-0.8c0-0.2,0.1-0.4,0.2-0.8l6.6-16.4
	c0.4-0.9,0.7-1.5,1.6-1.5c0.9,0,1.2,0.6,1.5,1.5l6.3,16.4c0.1,0.3,0.2,0.6,0.2,0.8c0,0.5-0.4,0.8-1.2,0.8c-0.9,0-1.2-0.4-1.6-1.2
	L117.6,13.3z M111.4,11.1h5.4l-2.7-7L111.4,11.1z"/>
<path class="st0" d="M128.9,18.4c0,0.4,0,0.7-0.2,1c-0.2,0.4-0.7,0.4-1,0.4c-0.5,0-0.9-0.1-1.1-0.4c-0.2-0.3-0.2-0.6-0.2-1v-17
	c0-0.7,0.4-1.1,1.2-1.1c0.9,0,1.2,0.5,1.9,1.3l10.7,13.6V1.7c0-0.4,0-0.7,0.2-1c0.2-0.4,0.7-0.4,1-0.4c0.5,0,0.9,0.1,1.1,0.4
	c0.2,0.3,0.2,0.6,0.2,1v17c0,0.7-0.4,1.1-1.1,1.1c-0.8,0-1.2-0.4-1.8-1.3L128.9,4.8V18.4z"/>
<path class="st0" d="M151.5,18.4c0,0.4,0,0.7-0.2,1c-0.2,0.3-0.6,0.4-1.1,0.4c-0.5,0-0.9-0.2-1.1-0.4c-0.2-0.3-0.2-0.6-0.2-1V1.7
	c0-0.4,0-0.7,0.2-1s0.6-0.4,1.1-0.4c0.5,0,0.9,0.2,1.1,0.4c0.2,0.3,0.2,0.6,0.2,1V18.4z"/>
<path class="st0" d="M160.2,18.4c0,0.4,0,0.7-0.2,1c-0.2,0.3-0.6,0.4-1.1,0.4c-0.5,0-0.9-0.2-1.1-0.4c-0.2-0.3-0.2-0.6-0.2-1V1.7
	c0-0.4,0-0.7,0.2-1s0.6-0.4,1.1-0.4c0.5,0,0.9,0.2,1.1,0.4c0.2,0.3,0.2,0.6,0.2,1V18.4z"/>
<path class="st0" d="M172,18.2c0.2,0.3,0.4,0.5,0.4,0.8c0,0.4-0.4,0.8-1.3,0.8c-0.9,0-1.4-0.4-2.1-1.2l-6.7-7.9
	c-0.5-0.6-0.6-0.9-0.6-1.4c0-0.4,0.2-0.8,0.6-1.3l5.7-6.6c0.6-0.7,1.1-1.2,2.2-1.2c0.9,0,1.2,0.3,1.2,0.7c0,0.2-0.1,0.5-0.4,0.8
	l-6.6,7.4L172,18.2z"/>
<path class="st0" d="M9,37.8L9,37.8c-1,0-1.8-0.8-1.8-1.8V16.1c0-1,0.8-1.8,1.8-1.8h0c1,0,1.8,0.8,1.8,1.8V36
	C10.8,37,10,37.8,9,37.8z"/>
<path class="st0" d="M14,37.8L14,37.8c-1,0-1.8-0.8-1.8-1.8V23.7c0-1,0.8-1.8,1.8-1.8h0c1,0,1.8,0.8,1.8,1.8V36
	C15.8,37,15,37.8,14,37.8z"/>
<path class="st0" d="M19,37.8L19,37.8c-1,0-1.8-0.8-1.8-1.8v-8.2c0-1,0.8-1.8,1.8-1.8h0c1,0,1.8,0.8,1.8,1.8V36
	C20.8,37,20,37.8,19,37.8z"/>
<path class="st0" d="M10.3,37.3L10.3,37.3c-0.7,0.7-1.8,0.7-2.5,0L1,30.4c-0.7-0.7-0.7-1.8,0-2.5l0,0c0.7-0.7,1.8-0.7,2.5,0l6.8,6.8
	C11,35.5,11,36.6,10.3,37.3z"/>
</svg>
