<?xml version="1.0" encoding="utf-8"?>
<!-- Generator: Adobe Illustrator 26.5.0, SVG Export Plug-In . SVG Version: 6.00 Build 0)  -->
<svg version="1.1" id="Layer_1" xmlns="http://www.w3.org/2000/svg" xmlns:xlink="http://www.w3.org/1999/xlink" x="0px" y="0px"
	 viewBox="0 0 183 72.5" style="enable-background:new 0 0 183 72.5;" xml:space="preserve">
<style type="text/css">
	.st0{fill:#FFFFFF;}
	.st1{fill:#FFFFFF;}
</style>
<g>
	<g>
		<path class="st0" d="M57.6,36.9c1.8-0.8,3.5-2.2,4.6-4.1c2.9-4.6,1.9-10.5-2.1-13.2c-4-2.7-9.6-1.1-12.4,3.6
			c-2.8,4.5-1.9,10.3,1.9,13c-7-0.5-14.4-0.8-21.7-0.8c0.7-0.7,1.3-1.4,1.9-2.3c3.2-5.1,2.2-11.5-2.4-14.4c-4.5-2.9-10.8-1.1-14,3.9
			c-2.8,4.4-2.4,9.8,0.7,13c-4.7,0.2-9,0.5-12.9,1L3,40.5c8.6-1.8,52.5-5,72.8-0.7C70.9,38.6,64.6,37.6,57.6,36.9z M50.6,23.7
			c2.2-3.6,6.2-4.8,8.9-3c2.7,1.8,3.3,5.9,1,9.5c-2.2,3.6-6.3,5.1-9,3.3C48.8,31.7,48.4,27.3,50.6,23.7z M16.8,23.2
			c2.5-4,7-5.3,10-3.3c3.1,2,3.7,6.5,1.2,10.5c-2.5,4-7.1,5.6-10.2,3.6C14.7,32.1,14.2,27.2,16.8,23.2z"/>
		<path class="st0" d="M4.7,31.3l-1.3-3.8l2.1,0c1.4-0.2,1.9-1.3,1.5-2.9L5.7,15l5.5-0.5c1.2-0.1,2.2-0.6,3.3-3l3.3-6.8
			c5.6-0.8,22.5,0.2,27.5,0.6l6.8,7.5c1.4,1.5,3.1,1.9,3.1,1.9l16.6,5.5l-3,12.4l6.9,1.6l-4.7-2L75.5,22c0.6-2.3,0-4.4-3.2-5.4
			l-16.6-5.3l-7.4-8.6c-0.7-0.7-1.1-1.4-3.5-1.6C35,0.3,24.2-0.4,18.6,0.3c-2.5,0.3-4,0.9-5.2,4l-2.6,6.5l-5.7,0
			c-3.8-0.1-4.9,2.9-4,5.2l3.2,9.6l-4.1,0.6L4.7,31.3z"/>
	</g>
	<g>
		<path class="st1" d="M7.1,64.8l-1.7,6.4c-0.2,0.6-0.2,0.7-0.9,0.7H0.8c-0.6,0-0.8-0.1-0.8-0.5c0-0.1,0-0.2,0.1-0.5l7.6-25.1
			C8,45.1,8,45.1,8.6,45.1h4c0.6,0,0.7,0,0.9,0.7l7.6,25.1c0.1,0.2,0.1,0.4,0.1,0.5c0,0.3-0.2,0.4-0.8,0.4h-4.2
			c-0.7,0-0.7,0-0.9-0.7l-1.7-6.4H7.1L7.1,64.8z M12.7,61.1l-1.4-6.7c-0.3-1.6-0.5-2.3-1-5.3c-0.3,2.3-0.5,3.2-1,5.3l-1.6,6.7H12.7z
			"/>
		<path class="st1" d="M27.1,45.1c0.7,0,0.8,0.1,0.8,0.8v16.9c0,2.5,0.1,3.2,0.7,4.1c0.7,1,1.8,1.4,3.3,1.4c3.1,0,4.3-1.6,4.3-5.4
			V45.9c0-0.7,0.1-0.8,0.8-0.8h3.5c0.7,0,0.8,0.1,0.8,0.8v16.9c0,3.3-0.5,5.1-2,6.7c-1.9,2.1-4.3,3-7.8,3c-3.5,0-6-1.1-7.4-3.2
			c-1-1.5-1.4-3.3-1.4-6.5V45.9c0-0.7,0.1-0.8,0.8-0.8H27.1L27.1,45.1z"/>
		<path class="st1" d="M59,45.1H43.9c-0.7,0-0.8,0.1-0.8,0.8v3c0,0.7,0.1,0.8,0.8,0.8h4.9V71c0,0.7,0.1,0.8,0.8,0.8h0h3.8h0
			c0.7,0,0.8-0.1,0.8-0.8V49.7H59c0.7,0,0.8-0.1,0.8-0.8v-3C59.9,45.2,59.8,45.1,59,45.1z"/>
		<path class="st1" d="M76.7,47.2c1.9,2.2,2.9,5.8,2.9,10.9c0,5.3-1,9-3,11.5c-1.6,1.9-3.8,2.9-6.7,2.9c-6.5,0-9.5-4.7-9.5-14.6
			c0-3.3,0.6-6.7,1.6-8.5c1.6-3.2,4.6-4.9,8.1-4.9C72.7,44.4,75.2,45.5,76.7,47.2z M66,58.3c0,6.7,1.3,9.9,4,9.9c2.7,0,4-3.3,4-9.8
			c0-6.6-1.3-9.8-4-9.8C67.4,48.6,66,52.1,66,58.3z"/>
		<path class="st1" d="M92,55.6c0.2,0.7,0.7,2.8,1,4.5c0.7-2.5,0.9-3.2,1.3-4.5l3.3-9.8c0.2-0.6,0.2-0.6,0.9-0.6h3.6
			c0.7,0,0.8,0.1,0.8,0.8l1.2,25.1l0,0.3c0,0.4-0.2,0.5-0.8,0.5h-3.5c-0.7,0-0.8-0.1-0.8-0.8l-0.3-13.8V56c0-0.7,0-0.7,0-4.3
			c-0.6,2.6-1,4.4-1.4,5.6l-2.5,8c-0.2,0.6-0.2,0.6-0.9,0.6h-2.4c-0.6,0-0.7,0-0.9-0.7l-2.2-7.6c-0.2-0.8-1-4-1.4-6l0,4.9v1.2L87,71
			c0,0.7-0.1,0.8-0.8,0.8H83c-0.6,0-0.8-0.2-0.8-0.6V71l1.1-25.1c0-0.7,0.2-0.8,0.8-0.8H88c0.6,0,0.7,0,0.9,0.6L92,55.6z"/>
		<path class="st1" d="M123.2,47.2c1.9,2.2,2.9,5.8,2.9,10.9c0,5.3-1,9-3,11.5c-1.6,1.9-3.8,2.9-6.7,2.9c-6.5,0-9.5-4.7-9.5-14.6
			c0-3.3,0.6-6.7,1.6-8.5c1.6-3.2,4.6-4.9,8.1-4.9C119.2,44.4,121.7,45.5,123.2,47.2z M112.5,58.3c0,6.7,1.3,9.9,4,9.9
			c2.7,0,4-3.3,4-9.8c0-6.6-1.3-9.8-4-9.8C113.9,48.6,112.5,52.1,112.5,58.3z"/>
		<path class="st1" d="M136.4,45.1c3.6,0,4.8,0.2,6.2,1.1c1.7,1.1,2.8,3.4,2.8,5.8c0,1.7-0.6,3.3-1.6,4.3c-0.6,0.6-1.1,1-2.4,1.6
			c3.1,0.8,4.9,3.2,4.9,6.4c0,2.8-1.5,5.5-3.6,6.7c-1.3,0.7-2.7,0.9-6.1,0.9h-6.6c-0.7,0-0.8-0.1-0.8-0.8V45.9
			c0-0.7,0.1-0.8,0.8-0.8H136.4L136.4,45.1z M134.4,56.2h1.6c1.6,0,2.3-0.2,2.9-0.6c0.8-0.6,1.3-1.7,1.3-3.1c0-1.4-0.5-2.5-1.4-3
			c-0.5-0.4-1.2-0.5-2.4-0.5h-2.1V56.2L134.4,56.2z M134.4,67.6h1.8c3.5,0,4.8-1,4.8-3.6c0-2.7-1.3-3.7-4.8-3.7h-1.9V67.6z"/>
		<path class="st1" d="M155.5,71c0,0.7-0.1,0.8-0.8,0.8H151c-0.7,0-0.8-0.1-0.8-0.8V45.9c0-0.7,0.1-0.8,0.8-0.8h3.7
			c0.7,0,0.8,0.1,0.8,0.8V71z"/>
		<path class="st1" d="M183,71c0,0.7-0.1,0.8-0.8,0.8h-3.7c-0.7,0-0.8-0.1-0.8-0.8V45.9c0-0.7,0.1-0.8,0.8-0.8h3.7
			c0.7,0,0.8,0.1,0.8,0.8V71z"/>
		<path class="st1" d="M174.5,67l-9.4,0V45.9c0-0.7-0.1-0.8-0.8-0.8h-3.7c-0.7,0-0.8,0.1-0.8,0.8v25.2c0,0.7,0.1,0.8,0.8,0.8h13.9
			c0.7,0,0.7-0.1,0.7-0.7v-3.4C175.3,67.2,175.1,67,174.5,67z"/>
	</g>
	<g>
		<path class="st0" d="M85.5,38c0,0.6-0.1,0.7-0.7,0.7h-3c-0.6,0-0.7-0.1-0.7-0.7V17.6c0-0.6,0.1-0.7,0.7-0.7h5.1
			c2.4,0,3.7,0.2,4.8,0.8c1.6,0.9,2.5,2.8,2.5,5.1c0,4.3-2.9,7.1-7.2,7.1h-1.6L85.5,38L85.5,38z M86.3,26.4c2.8,0,3.7-0.9,3.7-3.3
			c0-2.2-0.8-3-3.4-3h-1.2v6.2H86.3z"/>
		<path class="st0" d="M108.6,18.7c1.6,1.8,2.3,4.7,2.3,8.9c0,4.3-0.8,7.3-2.4,9.3c-1.3,1.5-3.1,2.3-5.4,2.3
			c-5.2,0-7.7-3.8-7.7-11.8c0-2.6,0.5-5.4,1.3-6.9c1.3-2.6,3.7-4,6.6-4C105.4,16.4,107.4,17.3,108.6,18.7z M99.9,27.7
			c0,5.4,1.1,8,3.2,8c2.2,0,3.3-2.6,3.3-7.9c0-5.4-1.1-7.9-3.2-7.9C101.1,19.8,99.9,22.6,99.9,27.7z"/>
		<path class="st0" d="M125.4,34.7h-7.6V17.6c0-0.6-0.1-0.7-0.7-0.7h-3c-0.6,0-0.7,0.1-0.7,0.7V38c0,0.6,0.1,0.7,0.7,0.7h11.2
			c0.5,0,0.6-0.1,0.6-0.6v-2.7C126,34.8,125.9,34.7,125.4,34.7z"/>
		<path class="st0" d="M139.9,18.7c1.6,1.8,2.3,4.7,2.3,8.9c0,4.3-0.8,7.3-2.4,9.3c-1.3,1.5-3.1,2.3-5.4,2.3
			c-5.2,0-7.7-3.8-7.7-11.8c0-2.6,0.5-5.4,1.3-6.9c1.3-2.6,3.7-4,6.6-4C136.7,16.4,138.7,17.3,139.9,18.7z M131.2,27.7
			c0,5.4,1.1,8,3.2,8c2.2,0,3.3-2.6,3.3-7.9c0-5.4-1.1-7.9-3.2-7.9C132.4,19.8,131.2,22.6,131.2,27.7z"/>
		<path class="st0" d="M149.9,30c0.1,0.5,0.3,1.5,0.4,2c0.2,0.9,0.3,1.8,0.4,2.7c0.4-2.2,0.5-2.7,1-4.7l2.9-12.5
			c0.1-0.4,0.4-0.5,0.6-0.5l3.4,0c0.4,0,0.5,0.1,0.4,0.5l-5.8,21c-0.2,0.5-0.2,0.5-0.7,0.5h-3.7c-0.5,0-0.6,0-0.7-0.5l-5.7-20.9
			c-0.1-0.3-0.1-0.6,0.5-0.6l3.7,0c0.2,0,0.4,0.1,0.5,0.6L149.9,30z"/>
		<path class="st0" d="M169.6,26.8c0.7,1.4,1.5,3.2,2,4.9c-0.1-2.4-0.1-2.8-0.1-4v-10c0-0.6,0.1-0.7,0.7-0.7h2.4
			c0.6,0,0.7,0.1,0.7,0.7V38c0,0.6-0.1,0.7-0.7,0.7h-2c-0.6,0-0.6-0.1-0.9-0.6l-5.4-10.2c-1-2-1.5-2.9-2-4.5
			c0.1,2.2,0.1,2.2,0.1,3.8v10.8c0,0.6-0.1,0.7-0.7,0.7h-2.4c-0.6,0-0.7-0.1-0.7-0.7V17.6c0-0.6,0.1-0.7,0.7-0.7h2.4
			c0.6,0,0.6,0,0.9,0.5L169.6,26.8z"/>
		<path class="st0" d="M182.9,38c0,0.6-0.1,0.7-0.7,0.7h-2.9c-0.6,0-0.7-0.1-0.7-0.7V17.6c0-0.6,0.1-0.7,0.7-0.7h2.9
			c0.6,0,0.7,0.1,0.7,0.7V38z"/>
	</g>
</g>
</svg>
