<?xml version="1.0" encoding="utf-8"?>
<!-- Generator: Adobe Illustrator 26.5.0, SVG Export Plug-In . SVG Version: 6.00 Build 0)  -->
<svg version="1.1" id="Layer_1" xmlns="http://www.w3.org/2000/svg" xmlns:xlink="http://www.w3.org/1999/xlink" x="0px" y="0px"
	 viewBox="0 0 210.5 66.8" style="enable-background:new 0 0 210.5 66.8;" xml:space="preserve">
<style type="text/css">
	.st0{fill:#FFFFFF;}
	.st1{fill:#FFFFFF;}
</style>
<g>
	<g>
		<rect x="186.2" class="st0" width="8" height="6.2"/>
		<rect x="186.4" y="8.5" class="st0" width="7.6" height="21.3"/>
		<polygon class="st0" points="174,35.6 184.6,8.5 176.7,8.5 170.6,26.5 164.6,8.5 156.5,8.5 167.1,35.6 		"/>
		<polygon class="st0" points="125.9,31.8 118.2,32.6 118.2,32.6 		"/>
		<path class="st0" d="M78.5,36c8.4,0,14.6-6.3,14.6-14v-0.1C93.1,14.2,87,8,78.6,8C70.2,8,64,14.3,64,22v0.1
			C64,29.9,70.2,36,78.5,36z M71.5,21.9c0-4,2.6-7.3,7-7.3c4.2,0,7.1,3.5,7.1,7.4v0.1c0,4-2.6,7.3-7,7.3c-4.2,0-7.1-3.5-7.1-7.4
			V21.9z"/>
		<path class="st0" d="M43.5,24.9h5.9c7.9,0,14.2-4.2,14.2-12.4v-0.1c0-7.2-5.1-12.2-13.5-12.2H35.8v35.2h7.7V24.9z M43.5,7.2h6
			c3.9,0,6.3,1.9,6.3,5.3v0.1c0,3-2.3,5.3-6.1,5.3h-6.1V7.2z"/>
		<path class="st0" d="M105.3,30.1c-2.5,0-5.6-1.1-8.5-3.2l-3.3,5c3.6,2.8,7.8,4.1,11.6,4.1c5.8,0,10.3-2.7,10.3-8.7v-0.1
			c0-4.9-4.4-6.7-8.1-8c-2.9-1-5.5-1.7-5.5-3.2v-0.1c0-1.1,1-1.9,2.8-1.9c2,0,4.6,1,7.3,2.5l2.9-5.3c-2.9-2-6.6-3.1-10.1-3.1
			c-5.4,0-9.9,3.1-9.9,8.5v0.1c0,5.2,4.3,7,8,8.1c3,0.9,5.6,1.5,5.6,3.1V28C108.5,29.3,107.5,30.1,105.3,30.1z"/>
		<path class="st0" d="M130.5,28.8v0.1c2.4,4.2,7.1,7.1,12.7,7.1c8.4,0,14.6-6.3,14.6-14v-0.1c0-7.7-6.2-13.9-14.5-13.9
			c-8.4,0-14.6,6.3-14.6,14v0.1C128.7,24.6,129.3,26.9,130.5,28.8L130.5,28.8z M136.3,21.9c0-4,2.6-7.3,7-7.3c4.2,0,7.1,3.5,7.1,7.4
			v0.1c0,4-2.6,7.3-7,7.3c-4.2,0-7.1-3.5-7.1-7.4V21.9z"/>
		<polygon class="st0" points="125.9,29.4 125.9,0 118.2,0 118.2,30.2 		"/>
	</g>
	<path class="st0" d="M5.7,27.2c2.8,0,5.6,1.7,5.6,5.1c0,3.3-2.8,5-5.6,5c-2.8,0-5.7-1.7-5.7-5C0,28.9,2.8,27.2,5.7,27.2"/>
	<rect x="0.6" y="39.6" class="st1" width="10.1" height="26.5"/>
	<path class="st1" d="M32.1,66.1V51.2c0-3.3-1.9-4.5-3.8-4.5c-2.4,0-4.6,1.6-4.6,5.2v14.2h-9.9v-27h7.1l2.2,2.9
		c2.3-2.7,5.7-3.7,8.5-3.6c5.7,0.1,10.5,3.1,10.5,12.7v15H32.1z"/>
	<path class="st1" d="M54.4,43.9v-1.3c0-2.3,1.4-3.3,3-3.3c1.3,0,2.6,0.4,3.7,1.3l3.1-6.1c-2-2-5-2.9-8.1-2.9
		c-5.6,0-11.6,3.1-11.6,11v1.3v7.7v14.5h10V51.6h2.7l3.8-7.7H54.4z"/>
	<path class="st1" d="M91.6,52.7c0,9.8-7.8,14.1-15.4,14.1c-7.7,0-15.4-4.3-15.4-14.1c0-10,7.6-14.1,15.4-14.1
		C84.1,38.6,91.6,42.9,91.6,52.7L91.6,52.7z M81.7,52.7c0-3.1-2-5.9-5.6-5.9c-3.5,0-5.6,2.8-5.6,5.9c0,3.1,2,5.8,5.6,5.8
		C79.5,58.5,81.7,56,81.7,52.7L81.7,52.7z"/>
	<path class="st1" d="M94.7,56c4.1,2.7,7.4,2.9,9.5,3c1.8,0,2.7-0.4,2.7-1.3c0-0.9-0.9-1.3-2.8-1.5C99,56,92.6,53.9,92.6,47.3
		c0-6.5,6.1-8.8,12.4-8.8c4.4,0,8.4,1.3,11,3.3l-4.3,6c-1.5-0.9-4.6-1.7-6.8-1.6c-1.4,0-2.4,0.3-2.4,1.3c0,0.5,0.4,1.3,2,1.3
		c5.6,0.2,12.4,1.7,12.4,8.9c0,6.7-6.1,9.2-12.5,9.2c-4.7,0-10-1.3-13-3.5L94.7,56z"/>
	<path class="st1" d="M135.9,65c-2.3,1.3-5,1.8-7.7,1.8c-5.3,0-10.1-2.5-10-10.9V32.6l0.1,0l7.6-0.8l2.3-0.2v7.8h6.1V47h-6.1v8.8
		c0.1,1.9,1.1,2.6,2.7,2.6c1,0,2.1-0.4,3-0.9L135.9,65z"/>
	<path class="st1" d="M146.2,39.2l0,14.9c0,3.3,1.9,4.5,3.8,4.5c2.4,0,4.6-1.5,4.6-5l0-14.4l9.9,0l0,27l-7.1,0l-2.2-2.9
		c-2.3,2.7-5.7,3.7-8.5,3.6c-5.7-0.1-10.5-3.1-10.5-12.7l0-15L146.2,39.2z"/>
	<path class="st1" d="M186.3,32.2v9.2c-1.5-1.8-4-2.9-7.5-2.9c-7.9,0-13.1,5.8-13.1,14.1c0,8.5,4.4,13.5,12.3,14
		c3,0.2,6.6-0.8,8.9-3.4l2.3,2.9h7.1V32.2H186.3z M181.1,58.5c-3,0-5.4-2.1-5.4-5.9c0-3.8,2.4-6,5.4-6c3.5,0,5.4,2.9,5.4,6.2
		C186.5,55.8,184.5,58.5,181.1,58.5z"/>
	<path class="st0" d="M204.9,55.6c2.8,0,5.6,1.7,5.6,5.1c0,3.3-2.8,5-5.6,5c-2.8,0-5.7-1.7-5.7-5C199.2,57.3,202.1,55.6,204.9,55.6"
		/>
</g>
</svg>
