<?xml version="1.0" encoding="utf-8"?>
<!-- Generator: Adobe Illustrator 26.5.0, SVG Export Plug-In . SVG Version: 6.00 Build 0)  -->
<svg version="1.1" id="Layer_1" xmlns="http://www.w3.org/2000/svg" xmlns:xlink="http://www.w3.org/1999/xlink" x="0px" y="0px"
	 viewBox="0 0 226.2 27.9" style="enable-background:new 0 0 226.2 27.9;" xml:space="preserve">
<style type="text/css">
	.st0{fill:#FFFFFF;}
	.st1{fill:#FFFFFF;}
</style>
<g>
	<g>
		<g>
			<path class="st0" d="M67.8,25.2h-2.2c-0.5,0-1-0.2-1.3-0.5c-0.1-0.1-0.2-0.2-0.2-0.3c-0.2-0.3-0.3-0.7-0.3-1V22
				c0-0.3,0.1-0.6,0.2-0.9c0.2-0.3,0.4-0.6,0.7-0.7c0.3-0.1,0.6-0.2,0.9-0.2h2.2c0.2,0,0.3-0.2,0.3-0.3c0,0,0,0,0,0c0,0,0,0,0-0.1
				c0,0,0,0,0,0c0,0,0,0,0-0.1c-0.1-0.1-0.1-0.2-0.2-0.3c-0.1-0.1-0.2-0.3-0.3-0.4c0,0,0,0,0,0c-0.2-0.2-0.4-0.3-0.6-0.5
				c-0.1-0.1-0.2-0.2-0.3-0.2c-0.1,0-0.2-0.1-0.3-0.1c-0.2-0.1-0.4-0.2-0.6-0.3c-0.5-0.2-1.1-0.3-1.7-0.3c-0.6,0-1.2,0.1-1.7,0.2
				c-0.2,0.1-0.4,0.1-0.5,0.2c-0.2,0.1-0.3,0.1-0.5,0.2c-0.1,0.1-0.2,0.1-0.3,0.2c-0.3,0.2-0.6,0.5-0.9,0.9
				c-0.1,0.1-0.1,0.1-0.2,0.2c-0.2,0.2-0.4,0.4-0.7,0.5c-0.7,1-11.5,1.8-24.8,1.8c-12.7,0-23.2-0.7-24.6-1.7c-0.2,0-0.4-0.1-0.6-0.2
				c-0.2-0.1-0.4-0.3-0.6-0.5c-0.3-0.3-0.6-0.6-0.9-0.9c-0.9-0.6-1.9-0.8-3.1-0.8c-1.1,0-2.2,0.4-3,1c-0.4,0.3-0.8,0.7-1.1,1.1
				c0,0-0.1,0.1-0.1,0.2c0,0.1,0,0.1,0,0.2c0,0,0.1,0.1,0.1,0.1c0,0,0.1,0,0.2,0h2.2c0.2,0,0.4,0,0.6,0.1c0.2,0.1,0.4,0.2,0.6,0.3
				c0.1,0.1,0.2,0.2,0.3,0.3C4.4,21,4.4,21,4.4,21.1c0,0.1,0.1,0.1,0.1,0.2c0.1,0.2,0.1,0.5,0.1,0.7v1.3c0,1-0.8,1.9-1.9,1.9H2.1
				H0.6c-0.1,0-0.2,0-0.2,0.1c0,0,0,0,0,0c0,0,0,0,0,0c0,0.1,0,0.2,0,0.2c0,0,0,0.1,0,0.1c0.3,0.4,0.6,0.7,1,1
				c0.2,0.2,0.5,0.3,0.7,0.5c0.1,0.1,0.2,0.1,0.3,0.2c0.1,0.1,0.3,0.1,0.4,0.2c0,0,0.1,0,0.2,0c0.4,0.1,0.9,0.2,1.4,0.2
				c0.7,0,1.4-0.1,2-0.3c0.2-0.1,0.3-0.1,0.5-0.2c0.1,0,0.2-0.1,0.2-0.1c0.2-0.1,0.3-0.2,0.5-0.3C8,26.6,8.2,26.3,8.5,26
				c0.4-0.5,1-0.8,1.7-0.8h1.3c0.3,0,0.5,0.1,0.7,0.2c0,0,0.1,0.1,0.1,0.1c0.1,0.1,0.1,0.2,0.2,0.2c0,0,0,0,0,0
				c0.1,0.1,0.1,0.2,0.2,0.3c0,0,0,0.1,0.1,0.1c0,0.1,0.1,0.1,0.1,0.2c0,0,0,0.1,0.1,0.1c0,0,0.1,0.1,0.1,0.1c0,0,0.1,0.1,0.1,0.1
				c0,0,0.1,0.1,0.1,0.1c0,0,0.1,0.1,0.1,0.1c0,0,0.1,0.1,0.1,0.1c0,0,0.1,0.1,0.1,0.1c0.1,0,0.1,0.1,0.2,0.1c0,0,0.1,0.1,0.1,0.1
				c0,0,0.1,0,0.1,0.1c0,0,0.1,0,0.1,0.1c0,0,0.1,0,0.1,0c0,0,0.1,0,0.1,0.1c0,0,0.1,0,0.1,0c0.1,0,0.1,0,0.2,0.1c0,0,0,0,0.1,0
				c0.4,0.1,0.8,0.2,1.2,0.2c5.1-0.3,11.3-0.7,18.1-0.7c7,0,13.4,0.4,18.6,0.7c0.1,0,0.2,0,0.3,0c0,0,0,0,0,0c0.1,0,0.2,0,0.3,0
				c0,0,0,0,0,0c0.1,0,0.2,0,0.2,0c0,0,0,0,0,0c0.1,0,0.2,0,0.2,0c0,0,0,0,0.1,0c0.1,0,0.1,0,0.2,0c0,0,0,0,0.1,0
				c0.1,0,0.1,0,0.2-0.1c0,0,0.1,0,0.1,0c0.1,0,0.1,0,0.2-0.1c0,0,0.1,0,0.1,0c0.1,0,0.1,0,0.2-0.1c0,0,0.1,0,0.1,0
				c0.1,0,0.1-0.1,0.2-0.1c0,0,0.1,0,0.1-0.1c0,0,0.1-0.1,0.1-0.1c0,0,0.1,0,0.1-0.1c0,0,0.1-0.1,0.1-0.1c0,0,0.1-0.1,0.1-0.1
				c0,0,0.1-0.1,0.1-0.1c0,0,0.1-0.1,0.1-0.1c0,0,0.1-0.1,0.1-0.1c0,0,0.1-0.1,0.1-0.1c0,0,0.1-0.1,0.1-0.1c0-0.1,0.1-0.1,0.1-0.2
				c0,0,0-0.1,0.1-0.1c0.1-0.1,0.1-0.2,0.2-0.3c0-0.1,0.1-0.1,0.1-0.2c0.2-0.3,0.5-0.4,0.8-0.5c0.1,0,0.2,0,0.3,0h0.6
				c0.4,0,0.8,0.1,1.2,0.3c0.1,0.1,0.3,0.2,0.4,0.3c0.1,0.1,0.1,0.1,0.2,0.2c0.1,0.1,0.1,0.1,0.2,0.2c0.2,0.3,0.5,0.5,0.8,0.7
				c0.3,0.2,0.6,0.4,1,0.5c0.1,0,0.2,0.1,0.3,0.1c0.5,0.1,1.1,0.2,1.7,0.2c1.3,0,2.6-0.5,3.5-1.4c0.2-0.2,0.4-0.4,0.6-0.7
				c0,0,0.1-0.1,0.1-0.2c0-0.1,0-0.2-0.1-0.2C68,25.2,67.9,25.2,67.8,25.2"/>
		</g>
		<g>
			<path class="st1" d="M68.1,7.4c-0.3-0.3-0.8-0.3-1.4-0.3c-0.7,0.1-6.2,1.2-6.9,2.3c0,0.1-0.1,0.3-0.3,1c-0.1-0.2-0.3-0.4-0.5-0.9
				c-1.5-2.8-6.5-8.3-6.9-8.7c-0.2-0.2-0.4-0.4-5.9-0.6C42.9,0.1,38.7,0,34.2,0l0,0c-4.4,0-8.6,0.1-11.8,0.2
				c-5.5,0.2-5.8,0.5-5.9,0.6C16.1,1.3,11,6.7,9.5,9.5C9.3,9.9,9.1,10.2,9,10.4c-0.2-0.7-0.3-0.9-0.3-1C8.1,8.4,2.5,7.2,1.8,7.1
				C1.2,7,0.7,7.1,0.4,7.4c-0.3,0.3-0.6,1-0.2,3.7c0,0.1,0.2,1.7,2.8,2.5c4,1.2,22.3,1.6,23.1,1.6l0,0l0,0c0.4,0,0.8-0.4,0.8-0.8
				c0-0.4-0.4-0.8-0.8-0.8c-2.8-0.1-6.1-0.5-8.7-0.9c-3.2-0.6-4.1-1.1-4.4-1.3C13.5,10,17.5,4,19,3.5c1.1-0.4,8.1-0.7,12.2-0.9
				c0.5,0,1.6,0,3,0c1.3,0,2.4,0,3,0c4.2,0.2,11.1,0.6,12.2,0.9C51,4,55,10,55.5,11.3c-0.3,0.2-1.2,0.7-4.4,1.3
				c-2.6,0.5-6,0.8-8.7,0.9c-0.4,0-0.8,0.4-0.8,0.8c0,0.4,0.3,0.8,0.8,0.8l0,0l0,0c0.8,0,19.1-0.4,23.1-1.6c2.5-0.8,2.8-2.4,2.8-2.5
				C68.7,8.4,68.4,7.7,68.1,7.4"/>
		</g>
	</g>
	<g>
		<path class="st0" d="M88.8,13.1c0,0.8-0.1,1.5-0.3,2.2c-0.2,0.7-0.5,1.2-0.9,1.7c-0.4,0.5-0.9,0.8-1.4,1.1
			c-0.6,0.3-1.2,0.4-1.9,0.4c-0.4,0-0.8,0-1.1-0.1c-0.4-0.1-0.7-0.2-1-0.3v3.9h-2.9V8.2c0.3-0.1,0.6-0.2,0.9-0.2
			c0.3-0.1,0.7-0.1,1.1-0.2c0.4-0.1,0.8-0.1,1.1-0.1c0.4,0,0.8,0,1.1,0c0.9,0,1.6,0.1,2.3,0.4c0.7,0.3,1.2,0.6,1.7,1.1
			c0.5,0.5,0.8,1,1.1,1.7C88.6,11.5,88.8,12.2,88.8,13.1z M85.8,13.1c0-0.9-0.2-1.6-0.6-2.2c-0.4-0.5-1-0.8-1.8-0.8
			c-0.3,0-0.5,0-0.7,0c-0.2,0-0.4,0-0.6,0.1v5.3c0.2,0.1,0.4,0.2,0.7,0.3c0.3,0.1,0.6,0.1,0.9,0.1C85.1,15.9,85.8,15,85.8,13.1z"/>
		<path class="st0" d="M96.7,10.5c-0.3-0.1-0.6-0.1-0.9-0.2c-0.4-0.1-0.7-0.1-1.1-0.1c-0.2,0-0.4,0-0.7,0c-0.3,0-0.4,0.1-0.6,0.1
			v7.9h-2.9V8.4c0.5-0.2,1.1-0.4,1.9-0.5c0.7-0.2,1.5-0.2,2.4-0.2c0.2,0,0.3,0,0.6,0c0.2,0,0.4,0,0.7,0.1c0.2,0,0.4,0.1,0.7,0.1
			c0.2,0,0.4,0.1,0.6,0.2L96.7,10.5z"/>
		<path class="st0" d="M107.9,13c0,0.8-0.1,1.6-0.4,2.2c-0.2,0.7-0.6,1.3-1,1.7c-0.4,0.5-1,0.8-1.6,1.1c-0.6,0.3-1.3,0.4-2.1,0.4
			c-0.8,0-1.5-0.1-2.1-0.4c-0.6-0.3-1.2-0.6-1.6-1.1c-0.4-0.5-0.8-1.1-1-1.7c-0.2-0.7-0.4-1.4-0.4-2.2c0-0.8,0.1-1.6,0.4-2.2
			c0.3-0.7,0.6-1.2,1.1-1.7c0.5-0.5,1-0.8,1.6-1.1c0.6-0.3,1.3-0.4,2-0.4c0.7,0,1.4,0.1,2.1,0.4c0.6,0.3,1.2,0.6,1.6,1.1
			c0.4,0.5,0.8,1,1,1.7C107.8,11.5,107.9,12.2,107.9,13z M104.9,13c0-0.9-0.2-1.6-0.5-2.1c-0.4-0.5-0.9-0.8-1.5-0.8
			s-1.2,0.3-1.6,0.8c-0.4,0.5-0.6,1.2-0.6,2.1s0.2,1.6,0.6,2.2c0.4,0.5,0.9,0.8,1.6,0.8s1.2-0.3,1.5-0.8
			C104.8,14.7,104.9,13.9,104.9,13z"/>
		<path class="st0" d="M118.8,17.9c-0.3,0.1-0.6,0.2-0.9,0.2c-0.3,0.1-0.7,0.1-1.1,0.2c-0.4,0.1-0.8,0.1-1.1,0.1c-0.4,0-0.8,0-1.1,0
			c-0.9,0-1.6-0.1-2.3-0.4c-0.7-0.2-1.2-0.6-1.7-1.1c-0.5-0.5-0.8-1-1.1-1.7c-0.2-0.7-0.4-1.4-0.4-2.2c0-0.8,0.1-1.6,0.3-2.3
			c0.2-0.7,0.5-1.2,0.9-1.7c0.4-0.5,0.9-0.8,1.4-1.1c0.6-0.2,1.2-0.4,2-0.4c0.4,0,0.8,0,1.1,0.1c0.3,0.1,0.6,0.2,1,0.3V3.4l2.9-0.5
			V17.9z M112.2,13c0,0.9,0.2,1.6,0.6,2.2c0.4,0.6,1,0.8,1.8,0.8c0.3,0,0.5,0,0.7,0c0.2,0,0.4,0,0.6-0.1v-5.3
			c-0.2-0.1-0.4-0.2-0.7-0.3s-0.6-0.1-0.9-0.1C112.8,10.1,112.2,11.1,112.2,13z"/>
		<path class="st0" d="M124.7,7.6c0.9,0,1.6,0.1,2.2,0.3c0.6,0.2,1,0.5,1.4,0.8c0.3,0.4,0.6,0.8,0.7,1.3c0.1,0.5,0.2,1.1,0.2,1.7
			v6.1c-0.4,0.1-1,0.2-1.7,0.3c-0.7,0.1-1.7,0.2-2.7,0.2c-0.7,0-1.3-0.1-1.8-0.2c-0.5-0.1-1-0.3-1.4-0.6c-0.4-0.3-0.7-0.6-0.9-1.1
			c-0.2-0.4-0.3-1-0.3-1.6c0-0.6,0.1-1.1,0.4-1.5c0.2-0.4,0.6-0.8,1-1c0.4-0.2,0.9-0.4,1.4-0.5c0.5-0.1,1.1-0.2,1.6-0.2
			c0.4,0,0.7,0,1,0c0.3,0,0.5,0.1,0.7,0.1v-0.3c0-0.5-0.2-0.9-0.5-1.2c-0.3-0.3-0.8-0.5-1.6-0.5c-0.5,0-1,0-1.5,0.1
			c-0.5,0.1-0.9,0.2-1.3,0.3l-0.4-2.4c0.2-0.1,0.4-0.1,0.6-0.2c0.3-0.1,0.5-0.1,0.8-0.2c0.3,0,0.6-0.1,1-0.1
			C124,7.6,124.4,7.6,124.7,7.6z M124.9,16.2c0.3,0,0.6,0,0.8,0c0.3,0,0.5,0,0.6-0.1v-2.2c-0.1,0-0.3-0.1-0.5-0.1
			c-0.2,0-0.5,0-0.6,0c-0.3,0-0.5,0-0.8,0c-0.2,0-0.5,0.1-0.6,0.2c-0.2,0.1-0.3,0.2-0.4,0.4c-0.1,0.2-0.2,0.4-0.2,0.6
			c0,0.5,0.2,0.8,0.5,1C124,16.1,124.4,16.2,124.9,16.2z"/>
		<path class="st0" d="M130.4,21.9c-0.2,0-0.5,0-0.8-0.1c-0.4,0-0.7-0.1-1-0.2l0.4-2.4c0.2,0.1,0.4,0.1,0.5,0.1c0.2,0,0.4,0,0.6,0
			c0.5,0,0.8-0.1,1-0.4c0.2-0.3,0.3-0.7,0.3-1.2V7.9h2.9v10c0,1.4-0.3,2.4-1,3C132.6,21.5,131.6,21.9,130.4,21.9z M134.5,4.9
			c0,0.5-0.2,1-0.5,1.3c-0.3,0.3-0.8,0.5-1.2,0.5s-0.9-0.2-1.2-0.5c-0.3-0.3-0.5-0.7-0.5-1.3s0.2-1,0.5-1.3c0.3-0.3,0.8-0.5,1.2-0.5
			s0.9,0.2,1.2,0.5C134.4,3.9,134.5,4.4,134.5,4.9z"/>
		<path class="st0" d="M140.2,7.6c0.9,0,1.6,0.1,2.2,0.3c0.6,0.2,1,0.5,1.4,0.8c0.3,0.4,0.6,0.8,0.7,1.3c0.1,0.5,0.2,1.1,0.2,1.7
			v6.1c-0.4,0.1-1,0.2-1.7,0.3c-0.7,0.1-1.7,0.2-2.7,0.2c-0.7,0-1.3-0.1-1.8-0.2c-0.5-0.1-1-0.3-1.4-0.6c-0.4-0.3-0.7-0.6-0.9-1.1
			c-0.2-0.4-0.3-1-0.3-1.6c0-0.6,0.1-1.1,0.4-1.5c0.2-0.4,0.6-0.8,1-1c0.4-0.2,0.9-0.4,1.4-0.5c0.5-0.1,1.1-0.2,1.6-0.2
			c0.4,0,0.7,0,1,0c0.3,0,0.5,0.1,0.7,0.1v-0.3c0-0.5-0.2-0.9-0.5-1.2c-0.3-0.3-0.8-0.5-1.6-0.5c-0.5,0-1,0-1.5,0.1
			c-0.5,0.1-0.9,0.2-1.3,0.3l-0.4-2.4c0.2-0.1,0.4-0.1,0.6-0.2c0.3-0.1,0.5-0.1,0.8-0.2c0.3,0,0.6-0.1,1-0.1
			C139.5,7.6,139.8,7.6,140.2,7.6z M140.4,16.2c0.3,0,0.6,0,0.8,0c0.3,0,0.5,0,0.6-0.1v-2.2c-0.1,0-0.3-0.1-0.5-0.1
			c-0.2,0-0.5,0-0.6,0c-0.3,0-0.5,0-0.8,0c-0.2,0-0.5,0.1-0.6,0.2c-0.2,0.1-0.3,0.2-0.4,0.4c-0.1,0.2-0.2,0.4-0.2,0.6
			c0,0.5,0.2,0.8,0.5,1C139.5,16.1,139.9,16.2,140.4,16.2z"/>
		<path class="st0" d="M155.9,17.9c-0.3,0.1-0.6,0.2-0.9,0.2c-0.3,0.1-0.7,0.1-1.1,0.2c-0.4,0.1-0.8,0.1-1.1,0.1c-0.4,0-0.8,0-1.1,0
			c-0.9,0-1.6-0.1-2.3-0.4s-1.2-0.6-1.7-1.1c-0.5-0.5-0.8-1-1.1-1.7c-0.2-0.7-0.4-1.4-0.4-2.2c0-0.8,0.1-1.6,0.3-2.3
			c0.2-0.7,0.5-1.2,0.9-1.7c0.4-0.5,0.9-0.8,1.4-1.1c0.6-0.2,1.2-0.4,2-0.4c0.4,0,0.8,0,1.1,0.1c0.3,0.1,0.6,0.2,1,0.3V3.4l2.9-0.5
			V17.9z M149.3,13c0,0.9,0.2,1.6,0.6,2.2c0.4,0.6,1,0.8,1.8,0.8c0.3,0,0.5,0,0.7,0c0.2,0,0.4,0,0.6-0.1v-5.3
			c-0.2-0.1-0.4-0.2-0.7-0.3c-0.3-0.1-0.6-0.1-0.9-0.1C150,10.1,149.3,11.1,149.3,13z"/>
		<path class="st0" d="M157.7,13.1c0-0.9,0.1-1.7,0.4-2.4c0.3-0.7,0.7-1.3,1.1-1.7c0.5-0.5,1-0.8,1.6-1c0.6-0.2,1.2-0.4,1.8-0.4
			c1.5,0,2.6,0.4,3.5,1.3c0.9,0.9,1.3,2.2,1.3,4c0,0.2,0,0.4,0,0.6c0,0.2,0,0.4,0,0.5h-6.6c0.1,0.6,0.3,1.1,0.8,1.4
			c0.5,0.4,1.2,0.5,2,0.5c0.5,0,1.1,0,1.6-0.1c0.5-0.1,0.9-0.2,1.3-0.4l0.4,2.4c-0.2,0.1-0.4,0.2-0.6,0.2c-0.3,0.1-0.6,0.1-0.9,0.2
			c-0.3,0.1-0.7,0.1-1,0.1c-0.4,0-0.7,0.1-1.1,0.1c-0.9,0-1.7-0.1-2.4-0.4c-0.7-0.3-1.3-0.7-1.7-1.1c-0.5-0.5-0.8-1-1-1.7
			C157.8,14.6,157.7,13.9,157.7,13.1z M164.5,12c0-0.2-0.1-0.5-0.1-0.7c-0.1-0.2-0.2-0.4-0.3-0.6c-0.2-0.2-0.3-0.3-0.6-0.5
			c-0.2-0.1-0.5-0.2-0.9-0.2c-0.3,0-0.6,0.1-0.8,0.2c-0.2,0.1-0.4,0.3-0.6,0.4s-0.3,0.4-0.4,0.6c-0.1,0.2-0.1,0.5-0.2,0.7H164.5z"/>
		<path class="st0" d="M173.2,18.4c-0.9,0-1.5-0.1-2.1-0.3c-0.5-0.2-0.9-0.4-1.3-0.7c-0.3-0.3-0.5-0.7-0.6-1.1
			c-0.1-0.4-0.2-0.9-0.2-1.5V3.4L172,3v11.3c0,0.3,0,0.5,0.1,0.7c0,0.2,0.1,0.4,0.2,0.5c0.1,0.1,0.3,0.3,0.5,0.4
			c0.2,0.1,0.5,0.2,0.8,0.2L173.2,18.4z"/>
		<path class="st0" d="M184.4,13c0,0.8-0.1,1.6-0.4,2.2c-0.2,0.7-0.6,1.3-1,1.7c-0.4,0.5-1,0.8-1.6,1.1c-0.6,0.3-1.3,0.4-2.1,0.4
			c-0.8,0-1.5-0.1-2.1-0.4c-0.6-0.3-1.2-0.6-1.6-1.1c-0.4-0.5-0.8-1.1-1-1.7c-0.2-0.7-0.4-1.4-0.4-2.2c0-0.8,0.1-1.6,0.4-2.2
			c0.3-0.7,0.6-1.2,1.1-1.7c0.5-0.5,1-0.8,1.6-1.1c0.6-0.3,1.3-0.4,2-0.4c0.7,0,1.4,0.1,2.1,0.4c0.6,0.3,1.2,0.6,1.6,1.1
			c0.4,0.5,0.8,1,1,1.7C184.3,11.5,184.4,12.2,184.4,13z M181.5,13c0-0.9-0.2-1.6-0.5-2.1c-0.4-0.5-0.9-0.8-1.5-0.8
			s-1.2,0.3-1.6,0.8c-0.4,0.5-0.6,1.2-0.6,2.1s0.2,1.6,0.6,2.2c0.4,0.5,0.9,0.8,1.6,0.8s1.2-0.3,1.5-0.8
			C181.3,14.7,181.5,13.9,181.5,13z"/>
		<path class="st0" d="M189,18.2c-0.7-1.3-1.4-2.8-2-4.6c-0.7-1.8-1.3-3.7-2-5.7h3.1c0.1,0.5,0.3,1.1,0.5,1.7
			c0.2,0.6,0.4,1.2,0.6,1.8c0.2,0.6,0.4,1.2,0.6,1.8c0.2,0.6,0.4,1.1,0.6,1.6c0.2-0.5,0.4-1,0.6-1.6c0.2-0.6,0.4-1.2,0.6-1.8
			c0.2-0.6,0.4-1.2,0.6-1.8c0.2-0.6,0.3-1.1,0.5-1.7h3c-0.6,2.1-1.3,4-2,5.7s-1.4,3.3-2,4.6H189z"/>
		<path class="st0" d="M200.2,7.6c0.9,0,1.6,0.1,2.2,0.3c0.6,0.2,1,0.5,1.4,0.8c0.3,0.4,0.6,0.8,0.7,1.3c0.1,0.5,0.2,1.1,0.2,1.7
			v6.1c-0.4,0.1-1,0.2-1.7,0.3s-1.7,0.2-2.7,0.2c-0.7,0-1.3-0.1-1.8-0.2c-0.5-0.1-1-0.3-1.4-0.6c-0.4-0.3-0.7-0.6-0.9-1.1
			c-0.2-0.4-0.3-1-0.3-1.6c0-0.6,0.1-1.1,0.4-1.5c0.2-0.4,0.6-0.8,1-1c0.4-0.2,0.9-0.4,1.4-0.5c0.5-0.1,1.1-0.2,1.6-0.2
			c0.4,0,0.7,0,1,0c0.3,0,0.5,0.1,0.7,0.1v-0.3c0-0.5-0.2-0.9-0.5-1.2c-0.3-0.3-0.8-0.5-1.6-0.5c-0.5,0-1,0-1.5,0.1
			c-0.5,0.1-0.9,0.2-1.3,0.3l-0.4-2.4c0.2-0.1,0.4-0.1,0.6-0.2c0.3-0.1,0.5-0.1,0.8-0.2c0.3,0,0.6-0.1,1-0.1
			C199.5,7.6,199.8,7.6,200.2,7.6z M200.4,16.2c0.3,0,0.6,0,0.8,0c0.3,0,0.5,0,0.6-0.1v-2.2c-0.1,0-0.3-0.1-0.5-0.1
			c-0.2,0-0.5,0-0.6,0c-0.3,0-0.5,0-0.8,0c-0.2,0-0.5,0.1-0.6,0.2c-0.2,0.1-0.3,0.2-0.4,0.4c-0.1,0.2-0.2,0.4-0.2,0.6
			c0,0.5,0.2,0.8,0.5,1C199.4,16.1,199.9,16.2,200.4,16.2z"/>
		<path class="st0" d="M209.6,16.7c0,0.6-0.2,1-0.6,1.3c-0.4,0.3-0.8,0.5-1.3,0.5c-0.5,0-0.9-0.2-1.3-0.5c-0.4-0.3-0.6-0.8-0.6-1.3
			c0-0.6,0.2-1,0.6-1.3c0.4-0.3,0.8-0.5,1.3-0.5c0.5,0,0.9,0.2,1.3,0.5C209.5,15.6,209.6,16.1,209.6,16.7z"/>
		<path class="st0" d="M217.3,10.5c-0.3-0.1-0.6-0.1-0.9-0.2c-0.4-0.1-0.7-0.1-1.1-0.1c-0.2,0-0.4,0-0.7,0c-0.3,0-0.4,0.1-0.6,0.1
			v7.9h-2.9V8.4c0.5-0.2,1.1-0.4,1.9-0.5c0.7-0.2,1.5-0.2,2.4-0.2c0.2,0,0.3,0,0.6,0c0.2,0,0.4,0,0.7,0.1c0.2,0,0.4,0.1,0.7,0.1
			c0.2,0,0.4,0.1,0.6,0.2L217.3,10.5z"/>
		<path class="st0" d="M221.8,16.1c0.5,0,0.9-0.1,1.1-0.2c0.2-0.1,0.3-0.3,0.3-0.6c0-0.2-0.1-0.4-0.4-0.6c-0.3-0.2-0.7-0.4-1.3-0.6
			c-0.5-0.2-0.9-0.3-1.2-0.5c-0.4-0.2-0.7-0.4-1-0.7c-0.3-0.3-0.5-0.6-0.6-0.9c-0.1-0.4-0.2-0.8-0.2-1.3c0-1,0.4-1.7,1.1-2.3
			c0.7-0.6,1.7-0.8,3-0.8c0.6,0,1.2,0.1,1.8,0.2c0.6,0.1,1,0.2,1.4,0.4l-0.5,2.3c-0.3-0.1-0.7-0.2-1.1-0.3c-0.4-0.1-0.8-0.1-1.3-0.1
			c-0.9,0-1.4,0.3-1.4,0.8c0,0.1,0,0.2,0.1,0.3c0,0.1,0.1,0.2,0.2,0.3c0.1,0.1,0.3,0.2,0.5,0.3c0.2,0.1,0.5,0.2,0.8,0.3
			c0.6,0.2,1.2,0.5,1.6,0.7c0.4,0.2,0.7,0.5,1,0.7c0.2,0.3,0.4,0.6,0.5,0.9c0.1,0.3,0.1,0.7,0.1,1.1c0,1-0.4,1.8-1.1,2.3
			c-0.8,0.5-1.9,0.8-3.3,0.8c-0.9,0-1.7-0.1-2.3-0.2c-0.6-0.2-1-0.3-1.3-0.4l0.5-2.4c0.5,0.2,1,0.4,1.5,0.5
			C220.8,16.1,221.3,16.1,221.8,16.1z"/>
	</g>
</g>
</svg>
