<?xml version="1.0" encoding="utf-8"?>
<!-- Generator: Adobe Illustrator 26.5.0, SVG Export Plug-In . SVG Version: 6.00 Build 0)  -->
<svg version="1.1" id="Layer_1" xmlns="http://www.w3.org/2000/svg" xmlns:xlink="http://www.w3.org/1999/xlink" x="0px" y="0px"
	 viewBox="0 0 178.3 56.5" style="enable-background:new 0 0 178.3 56.5;" xml:space="preserve">
<style type="text/css">
	.st0{fill:#FFFFFF;}
	.st1{fill:#FFFFFF;}
	.st2{fill:#FFFFFF;}
</style>
<g id="Group_1" transform="translate(-12.752 -157)">
	<path id="Path_1" class="st0" d="M107.2,199.9c1,0,1.9,0.6,1.9,1.7c0,1.1-1,1.7-1.9,1.7c-1,0-1.9-0.6-1.9-1.7
		C105.2,200.5,106.2,199.9,107.2,199.9"/>
	<rect id="Rectangle_1" x="105.5" y="204.1" class="st1" width="3.4" height="9.1"/>
	<path id="Path_2" class="st1" d="M116.2,213.2v-5.1c0-1.1-0.7-1.5-1.3-1.5c-0.8,0-1.6,0.6-1.6,1.8v4.9H110V204h2.4l0.8,1
		c0.7-0.8,1.8-1.3,2.9-1.2c1.9,0,3.6,1,3.6,4.3v5.1H116.2z"/>
	<path id="Path_3" class="st1" d="M123.8,205.6v-0.4c0-0.8,0.5-1.1,1-1.1c0.5,0,0.9,0.2,1.2,0.4l1-2.1c-0.7-0.7-1.7-1-2.8-1
		c-1.9,0-4,1.1-4,3.8v8.1h3.4v-5h0.9l1.3-2.7H123.8z"/>
	<path id="Path_4" class="st1" d="M136.5,208.6c0,3.4-2.7,4.8-5.3,4.8c-2.6,0-5.3-1.5-5.3-4.8c0-3.4,2.6-4.8,5.3-4.8
		C134,203.8,136.5,205.3,136.5,208.6 M133.2,208.6c0-1.1-0.7-2-1.9-2s-1.9,1-1.9,2c0,1.1,0.7,2,1.9,2
		C132.4,210.6,133.2,209.7,133.2,208.6"/>
	<path id="Path_5" class="st1" d="M137.6,209.7c1,0.7,2.1,1,3.3,1c0.6,0,0.9-0.1,0.9-0.4c0-0.3-0.3-0.4-1-0.5
		c-1.8-0.1-3.9-0.8-3.9-3c0-2.2,2.1-3,4.2-3c1.5,0,2.9,0.4,3.8,1.1l-1.5,2.1c-0.5-0.3-1.6-0.6-2.3-0.6c-0.5,0-0.8,0.1-0.8,0.4
		c0,0.2,0.1,0.4,0.7,0.4c1.9,0.1,4.2,0.6,4.2,3c0,2.3-2.1,3.1-4.3,3.1c-1.6,0-3.4-0.4-4.5-1.2L137.6,209.7z"/>
	<path id="Path_6" class="st1" d="M145.6,204v-2.3l3.4-0.4v2.7h2.1v2.6H149v3c0,0.7,0.4,0.9,0.9,0.9c0.4,0,0.7-0.1,1-0.3l0.7,2.5
		c-0.8,0.4-1.7,0.6-2.6,0.6c-1.8,0-3.5-0.8-3.4-3.7L145.6,204L145.6,204z"/>
	<path id="Path_7" class="st1" d="M155.2,204v5.1c0,1.1,0.7,1.5,1.3,1.5c0.8,0,1.6-0.5,1.6-1.7V204h3.4v9.2H159l-0.8-1
		c-0.7,0.8-1.8,1.3-2.9,1.2c-1.9,0-3.6-1-3.6-4.3V204H155.2z"/>
	<path id="Path_8" class="st1" d="M168.9,201.6h3.4v11.6h-2.4l-0.8-1c-0.8,0.9-2,1.2-3,1.2c-2.7-0.2-4.2-1.9-4.2-4.8
		c0-2.8,1.8-4.8,4.5-4.8c1.2,0,2,0.4,2.6,1L168.9,201.6z M165.2,208.6c0,1.3,0.8,2,1.8,2c1.2,0,1.8-1,1.8-1.9c0-1.1-0.6-2.1-1.8-2.1
		C166.1,206.6,165.2,207.3,165.2,208.6"/>
	<path id="Path_9" class="st0" d="M175.2,209.6c0.9,0,1.9,0.6,1.9,1.7c0,1.1-1,1.7-1.9,1.7c-1,0-1.9-0.6-1.9-1.7
		C173.3,210.2,174.2,209.6,175.2,209.6"/>
	<path id="Path_10" class="st2" d="M84.8,174.2c-1.6-1.7-4.5-2.5-6.8-2.5c-2.9,0-5.2,1.2-5.2,3.2c0,2.7,2.6,3.2,6.3,3.5
		c5.8,0.5,11.3,2.7,11.3,9.5c0,6.5-6,9.4-12.4,9.4c-5.1,0-10.4-1.9-12.8-6l3.9-4.1c2.3,2.9,6,4.2,9,4.2c3.5,0,5.9-1.4,5.9-3.5
		c0-2.5-1.9-3.6-5.9-3.9c-6.2-0.6-11.7-2.1-11.7-9.1c0-5.8,5.6-8.9,11.6-8.9c4.5,0,7.9,1,10.9,4.5L84.8,174.2z"/>
	<path id="Path_11" class="st2" d="M97.8,170.1v5.8h5.2v5h-5.3v7.8c0,2.2,1.2,2.8,2.3,2.8c0.7,0,1.8-0.2,2.5-0.5l1.4,5
		c-1.4,0.6-2.9,0.9-4.4,0.9c-4.5,0.2-7.9-1.8-7.9-8.2v-17.9L97.8,170.1z"/>
	<path id="Path_12" class="st2" d="M121.5,175.7h5.7v20.7h-5.5l-0.3-2.6c-1.4,2.2-4.4,3-6.4,3.1c-6.2,0-10.7-4-10.7-10.8
		c0-6.9,4.7-10.9,10.9-10.8c2.6,0,5,1,6.1,2.9L121.5,175.7z M110.3,186.1c0,3.4,2.4,5.5,5.5,5.5c3.4,0,5.5-2.6,5.5-5.2
		c0-3-1.9-5.7-5.5-5.7C112.8,180.6,110.3,182.6,110.3,186.1"/>
	<path id="Path_13" class="st2" d="M151.5,170.1v5.8h5.2v5h-5.3v7.8c0,2.2,1.2,2.8,2.3,2.8c0.7,0,1.8-0.2,2.5-0.5l1.4,5
		c-1.4,0.6-2.9,0.9-4.4,0.9c-4.5,0.2-7.9-1.8-7.9-8.2v-17.9L151.5,170.1z"/>
	<path id="Path_14" class="st2" d="M165.6,175.7v10.9c0,3.2,1.4,4.8,4.3,4.8c2.8,0,4.7-2.4,4.7-5.1v-10.7h6v20.7H175l-0.2-2.7
		c-1.8,2.5-4.2,3.2-6.7,3.1c-4.7,0-8.6-2.1-8.6-10.1v-11L165.6,175.7z"/>
	<path id="Path_15" class="st2" d="M190.6,175.7v21.8c0.2,8.3-6.6,9.8-11.9,6.8l1.7-4.4c2.3,1.2,4.2,1,4.2-2.2v-21.9H190.6z
		 M184.2,170.2c0,4.5,6.8,4.5,6.8,0C191,165.7,184.2,165.7,184.2,170.2"/>
	<path id="Path_16" class="st2" d="M143.5,175.3c-0.4-0.1-0.9-0.1-1.3-0.1c-2.3,0-4.1,0.8-5.5,2.8l-0.5-2.3h-5.6v20.7h6v-10.8
		c0-3.1,2.2-4.8,4.8-4.8c0.7,0,1.4,0.1,2.1,0.4L143.5,175.3z"/>
	<path id="Path_17" class="st2" d="M37.3,157c-13.6,0-24.6,11-24.6,24.6c0,13.6,11,24.6,24.6,24.6c13.6,0,24.6-11,24.6-24.6
		c0,0,0,0,0,0C61.9,168,50.9,157,37.3,157 M37.3,196.3v-12H26.5l10.9-18v12h10.9L37.3,196.3z"/>
</g>
</svg>
